<svg width="234" height="234" viewBox="0 0 234 234" fill="none" xmlns="http://www.w3.org/2000/svg">
<rect x="3" y="3" width="228" height="228" rx="114" fill="#7BC5B1"/>
<rect x="3" y="3" width="228" height="228" rx="114" stroke="black" stroke-width="6"/>
<path d="M56.7177 156.5C56.8643 156.873 56.9377 157.3 56.9377 157.78C56.9377 158.647 56.6777 159.32 56.1577 159.8C55.6377 160.267 54.8977 160.5 53.9377 160.5C53.071 160.5 52.2377 160.38 51.4377 160.14C50.9177 160.393 50.3443 160.52 49.7177 160.52C48.8643 160.52 48.2443 160.307 47.8577 159.88C47.471 159.453 47.2777 158.767 47.2777 157.82C47.2777 157.22 47.3643 156.327 47.5377 155.14C47.711 153.953 48.0443 151.933 48.5377 149.08L47.4777 146.94C48.9843 145.967 50.3577 145.48 51.5977 145.48C52.6243 145.48 53.1377 146.107 53.1377 147.36C53.1377 147.653 53.0577 148.253 52.8977 149.16C52.751 150.053 52.5843 150.993 52.3977 151.98C51.8643 154.833 51.5977 156.547 51.5977 157.12V157.28H53.7577C54.7843 157.133 55.771 156.873 56.7177 156.5ZM73.3324 157.7C73.3324 158.567 73.539 159.173 73.9524 159.52C73.1924 160.173 72.399 160.5 71.5724 160.5C70.8524 160.5 70.299 160.34 69.9124 160.02C69.539 159.7 69.3124 159.207 69.2324 158.54L69.0324 158.44C68.4857 159.093 67.8457 159.6 67.1124 159.96C66.379 160.32 65.5724 160.5 64.6924 160.5C63.6257 160.5 62.8324 160.233 62.3124 159.7C61.7924 159.167 61.5324 158.353 61.5324 157.26C61.5324 156.767 61.5724 156.247 61.6524 155.7C61.7324 155.14 61.8524 154.473 62.0124 153.7C62.119 153.167 62.2124 152.64 62.2924 152.12C62.3724 151.587 62.4124 151.147 62.4124 150.8C62.4124 150.413 62.3724 150.06 62.2924 149.74C62.2257 149.42 62.1257 149.167 61.9924 148.98C62.539 148.7 63.1057 148.467 63.6924 148.28C64.2924 148.093 64.7724 148 65.1324 148C65.679 148 66.0724 148.113 66.3124 148.34C66.5657 148.553 66.6924 148.913 66.6924 149.42C66.6924 149.74 66.6257 150.253 66.4924 150.96C66.359 151.667 66.219 152.38 66.0724 153.1C65.9257 153.793 65.7857 154.473 65.6524 155.14C65.5324 155.807 65.4724 156.28 65.4724 156.56C65.4724 157.08 65.579 157.46 65.7924 157.7C66.0057 157.94 66.3457 158.06 66.8124 158.06C67.2524 158.06 67.699 157.927 68.1524 157.66C68.619 157.38 69.0257 157.007 69.3724 156.54C69.559 155.38 69.9324 153.593 70.4924 151.18L69.3724 149.5C70.2924 148.953 71.0457 148.567 71.6324 148.34C72.2324 148.113 72.7924 148 73.3124 148C73.8457 148 74.2257 148.113 74.4524 148.34C74.6924 148.567 74.8124 148.947 74.8124 149.48C74.8124 149.653 74.759 149.973 74.6524 150.44C74.559 150.893 74.4524 151.393 74.3324 151.94C74.0257 153.207 73.779 154.313 73.5924 155.26C73.419 156.193 73.3324 157.007 73.3324 157.7ZM82.2458 160.5C81.4325 160.5 80.8391 160.293 80.4658 159.88C80.0925 159.467 79.9058 158.847 79.9058 158.02C79.9058 157.487 80.0391 156.453 80.3058 154.92C80.5858 153.387 80.8725 151.987 81.1658 150.72L80.1258 149.12C81.4458 148.373 82.6791 148 83.8258 148C84.3725 148 84.7791 148.133 85.0458 148.4C85.3258 148.667 85.4658 149.04 85.4658 149.52C85.4658 149.853 85.4191 150.207 85.3258 150.58C85.2458 150.94 85.1391 151.267 85.0058 151.56L85.2058 151.66C85.9658 150.367 86.7725 149.433 87.6258 148.86C88.4791 148.287 89.4191 148 90.4458 148C91.1925 148 91.7791 148.187 92.2058 148.56C92.6458 148.933 92.8658 149.493 92.8658 150.24C92.8658 150.64 92.7991 151.08 92.6658 151.56L92.8658 151.66C93.6258 150.367 94.4325 149.433 95.2858 148.86C96.1391 148.287 97.0791 148 98.1058 148C98.9191 148 99.5258 148.2 99.9258 148.6C100.326 148.987 100.526 149.593 100.526 150.42C100.526 150.873 100.479 151.347 100.386 151.84C100.292 152.333 100.152 152.993 99.9658 153.82C99.7525 154.713 99.5925 155.447 99.4858 156.02C99.3925 156.58 99.3458 157.14 99.3458 157.7C99.3458 158.527 99.4858 159.133 99.7658 159.52C99.0591 160.173 98.3258 160.5 97.5658 160.5C96.7391 160.5 96.1391 160.313 95.7658 159.94C95.4058 159.553 95.2258 158.98 95.2258 158.22C95.2258 157.607 95.2858 157.007 95.4058 156.42C95.5391 155.833 95.7191 155.147 95.9458 154.36C96.1058 153.8 96.2258 153.347 96.3058 153C96.3858 152.653 96.4258 152.333 96.4258 152.04C96.4258 151.44 96.1991 151.14 95.7458 151.14C95.2391 151.14 94.6591 151.433 94.0058 152.02C93.3658 152.593 92.8191 153.38 92.3658 154.38C91.9125 155.38 91.6858 156.487 91.6858 157.7C91.6858 158.527 91.8258 159.133 92.1058 159.52C91.3991 160.173 90.6658 160.5 89.9058 160.5C89.0791 160.5 88.4791 160.313 88.1058 159.94C87.7458 159.553 87.5658 158.98 87.5658 158.22C87.5658 157.607 87.6258 157.007 87.7458 156.42C87.8791 155.833 88.0591 155.147 88.2858 154.36C88.4458 153.8 88.5658 153.347 88.6458 153C88.7258 152.653 88.7658 152.333 88.7658 152.04C88.7658 151.44 88.5391 151.14 88.0858 151.14C87.5791 151.14 86.9991 151.433 86.3458 152.02C85.7058 152.593 85.1591 153.38 84.7058 154.38C84.2525 155.38 84.0258 156.487 84.0258 157.7C84.0258 158.527 84.1658 159.133 84.4458 159.52C83.7391 160.173 83.0058 160.5 82.2458 160.5ZM117.383 157.7C117.383 158.567 117.59 159.173 118.003 159.52C117.19 160.173 116.33 160.5 115.423 160.5C114.743 160.5 114.216 160.307 113.843 159.92C113.483 159.52 113.303 158.967 113.303 158.26C113.303 158.033 113.323 157.793 113.363 157.54L113.163 157.44C112.79 158.4 112.243 159.153 111.523 159.7C110.816 160.233 110.03 160.5 109.163 160.5C108.416 160.5 107.756 160.307 107.183 159.92C106.623 159.533 106.19 158.987 105.883 158.28C105.576 157.56 105.423 156.733 105.423 155.8C105.423 154.267 105.756 152.913 106.423 151.74C107.103 150.553 108.043 149.633 109.243 148.98C110.456 148.327 111.843 148 113.403 148C113.963 148 114.49 148.053 114.983 148.16C115.09 148.413 115.163 148.753 115.203 149.18C115.75 148.727 116.41 148.5 117.183 148.5C117.65 148.5 118.01 148.64 118.263 148.92C118.516 149.187 118.643 149.573 118.643 150.08C118.643 150.347 118.596 150.733 118.503 151.24C118.41 151.747 118.296 152.28 118.163 152.84C117.91 153.92 117.716 154.84 117.583 155.6C117.45 156.347 117.383 157.047 117.383 157.7ZM110.943 157.06C111.93 157.06 112.716 156.48 113.303 155.32C113.89 154.147 114.31 152.327 114.563 149.86C113.603 149.953 112.73 150.247 111.943 150.74C111.156 151.22 110.53 151.84 110.063 152.6C109.61 153.347 109.383 154.153 109.383 155.02C109.383 155.673 109.516 156.18 109.783 156.54C110.063 156.887 110.45 157.06 110.943 157.06ZM139.021 160.5C136.981 160.5 135.388 159.967 134.241 158.9C133.094 157.833 132.521 156.347 132.521 154.44C132.521 152.733 132.914 151.2 133.701 149.84C134.501 148.467 135.601 147.4 137.001 146.64C138.401 145.867 139.968 145.48 141.701 145.48C142.968 145.48 143.974 145.713 144.721 146.18C145.468 146.633 145.841 147.247 145.841 148.02C145.841 148.647 145.621 149.167 145.181 149.58C144.741 149.98 144.181 150.18 143.501 150.18C142.848 150.18 142.248 150.007 141.701 149.66C141.168 149.3 140.741 148.787 140.421 148.12C139.754 148.373 139.148 148.82 138.601 149.46C138.068 150.1 137.648 150.86 137.341 151.74C137.034 152.62 136.881 153.547 136.881 154.52C136.881 155.733 137.088 156.68 137.501 157.36C137.928 158.04 138.514 158.38 139.261 158.38C139.848 158.38 140.381 158.22 140.861 157.9C141.354 157.567 141.748 157.12 142.041 156.56C142.348 156 142.514 155.38 142.541 154.7C143.408 154.7 144.068 154.86 144.521 155.18C144.974 155.487 145.201 155.953 145.201 156.58C145.201 157.3 144.921 157.96 144.361 158.56C143.814 159.16 143.068 159.633 142.121 159.98C141.174 160.327 140.141 160.5 139.021 160.5ZM162.756 152.46C162.756 154.26 162.836 155.733 162.996 156.88C163.17 158.027 163.516 158.96 164.036 159.68C163.263 160.28 162.43 160.58 161.536 160.58C160.696 160.58 160.043 160.28 159.576 159.68C159.123 159.067 158.823 158.1 158.676 156.78H154.276C154.183 157.14 154.136 157.48 154.136 157.8C154.136 158.187 154.17 158.527 154.236 158.82C154.303 159.113 154.41 159.4 154.556 159.68C154.183 159.947 153.743 160.16 153.236 160.32C152.73 160.493 152.236 160.58 151.756 160.58C151.143 160.58 150.676 160.413 150.356 160.08C150.05 159.747 149.896 159.26 149.896 158.62C149.896 157.793 150.183 156.66 150.756 155.22C151.343 153.767 152.416 151.513 153.976 148.46L153.316 146.76C154.063 146.307 154.743 145.987 155.356 145.8C155.97 145.6 156.636 145.5 157.356 145.5C158.116 145.5 158.663 145.667 158.996 146C159.623 145.667 160.183 145.5 160.676 145.5C161.41 145.5 161.943 145.733 162.276 146.2C162.61 146.667 162.776 147.413 162.776 148.44L162.756 152.46ZM158.556 154.4V154.16C158.556 151.68 158.596 149.673 158.676 148.14H158.436C156.97 150.46 155.85 152.547 155.076 154.4H158.556ZM176.788 150.14C176.228 150.14 175.548 150.04 174.748 149.84L174.248 152.56C174.648 152.64 175.048 152.68 175.448 152.68L177.248 152.22C177.315 152.487 177.348 152.807 177.348 153.18C177.348 153.753 177.155 154.207 176.768 154.54C176.382 154.86 175.848 155.02 175.168 155.02C174.768 155.02 174.322 154.96 173.828 154.84C173.642 156.027 173.548 156.787 173.548 157.12C173.548 157.733 173.588 158.227 173.668 158.6C173.762 158.973 173.922 159.313 174.148 159.62C173.468 160.22 172.642 160.52 171.668 160.52C170.815 160.52 170.195 160.307 169.808 159.88C169.422 159.453 169.228 158.767 169.228 157.82C169.228 157.22 169.315 156.32 169.488 155.12C169.662 153.907 169.995 151.893 170.488 149.08L169.428 146.94C170.935 145.967 172.308 145.48 173.548 145.48C174.348 145.48 174.835 145.847 175.008 146.58C175.862 146.527 176.682 146.427 177.468 146.28C178.255 146.12 179.248 145.887 180.448 145.58C180.555 146.073 180.608 146.507 180.608 146.88C180.608 147.893 180.268 148.693 179.588 149.28C178.908 149.853 177.975 150.14 176.788 150.14ZM191.961 157.28C192.988 157.133 193.974 156.873 194.921 156.5C195.068 156.847 195.141 157.273 195.141 157.78C195.141 158.647 194.881 159.32 194.361 159.8C193.841 160.267 193.101 160.5 192.141 160.5C191.008 160.5 189.941 160.307 188.941 159.92C188.354 160.32 187.654 160.52 186.841 160.52C185.988 160.52 185.368 160.307 184.981 159.88C184.594 159.453 184.401 158.767 184.401 157.82C184.401 157.22 184.488 156.32 184.661 155.12C184.834 153.907 185.168 151.893 185.661 149.08L184.601 146.94C186.108 145.967 187.481 145.48 188.721 145.48C189.508 145.48 189.994 145.853 190.181 146.6C191.088 146.547 191.954 146.44 192.781 146.28C193.608 146.12 194.621 145.887 195.821 145.58C195.928 146.073 195.981 146.507 195.981 146.88C195.981 147.893 195.641 148.693 194.961 149.28C194.281 149.853 193.348 150.14 192.161 150.14C191.548 150.14 190.801 150.027 189.921 149.8C189.788 150.56 189.621 151.48 189.421 152.56C189.821 152.64 190.221 152.68 190.621 152.68L192.421 152.22C192.488 152.487 192.521 152.807 192.521 153.18C192.521 153.753 192.328 154.207 191.941 154.54C191.554 154.86 191.021 155.02 190.341 155.02C189.941 155.02 189.494 154.96 189.001 154.84C188.814 156.027 188.721 156.787 188.721 157.12V157.28H191.961ZM189.601 144.24C189.281 144.24 189.021 144.107 188.821 143.84C188.621 143.573 188.508 143.2 188.481 142.72C188.908 142.6 189.314 142.42 189.701 142.18C190.101 141.927 190.594 141.587 191.181 141.16C191.768 140.707 192.261 140.367 192.661 140.14C193.074 139.9 193.481 139.78 193.881 139.78C194.308 139.78 194.634 139.927 194.861 140.22C195.088 140.513 195.201 140.933 195.201 141.48C195.201 141.92 195.134 142.407 195.001 142.94C194.294 142.94 193.668 143.013 193.121 143.16C192.588 143.307 192.008 143.507 191.381 143.76C190.981 143.92 190.648 144.04 190.381 144.12C190.128 144.2 189.868 144.24 189.601 144.24Z" fill="black"/>
<path d="M60.5351 86.28L60.0151 89.5H59.2151C58.3351 89.5 57.4751 89.3733 56.6351 89.12C56.1151 89.3733 55.5684 89.5 54.9951 89.5C54.2484 89.5 53.6951 89.2667 53.3351 88.8C52.9751 88.3333 52.7951 87.6867 52.7951 86.86C52.7951 86.22 52.8818 85.3533 53.0551 84.26C53.2284 83.1667 53.5018 81.5333 53.8751 79.36L54.3751 76.56L53.2551 74.96C54.6018 73.9867 55.8818 73.5 57.0951 73.5C57.6684 73.5 58.0751 73.6133 58.3151 73.84C58.5684 74.0667 58.6951 74.4267 58.6951 74.92C58.6951 75.28 58.6418 75.74 58.5351 76.3C58.4284 76.86 58.2684 77.6067 58.0551 78.54C57.6818 80.2333 57.3951 81.66 57.1951 82.82C57.0084 83.98 56.9151 85.12 56.9151 86.24V86.28H60.5351ZM72.9937 76.9C76.5004 76.9 78.2537 78.4467 78.2537 81.54C78.2537 82.9 77.9404 84.1933 77.3137 85.42C76.7004 86.6467 75.8604 87.6333 74.7937 88.38C73.727 89.1267 72.5737 89.5 71.3337 89.5H66.6137L66.3337 88.46H66.1737C66.0404 88.7267 65.7937 88.9667 65.4337 89.18C65.087 89.3933 64.6737 89.5 64.1937 89.5H61.1937L61.6937 86.28H63.1337C63.6937 86.28 64.167 86.14 64.5537 85.86C64.9404 85.58 65.167 85.2733 65.2337 84.94L66.1137 79.42C66.5004 79.02 67.027 78.6267 67.6937 78.24C68.3737 77.8533 69.1737 77.5333 70.0937 77.28C71.0137 77.0267 71.9804 76.9 72.9937 76.9ZM70.6137 86.28C70.987 86.28 71.427 86.1267 71.9337 85.82C72.4404 85.5133 72.8737 85.0667 73.2337 84.48C73.5937 83.8933 73.7737 83.2067 73.7737 82.42C73.7737 81.7533 73.607 81.2067 73.2737 80.78C72.9537 80.34 72.407 80.12 71.6337 80.12C71.1004 80.12 70.6737 80.2267 70.3537 80.44L69.5137 86.28H70.6137ZM96.1207 89.5H92.7607C92.2807 91.0733 91.7274 92.3533 91.1007 93.34C90.4874 94.34 89.7541 95.08 88.9007 95.56C88.0474 96.0533 87.0274 96.3 85.8407 96.3C84.6674 96.3 83.7807 96.08 83.1807 95.64C82.5807 95.2 82.2807 94.58 82.2807 93.78C83.8141 93.78 85.0074 93.6 85.8607 93.24C86.7274 92.88 87.3474 92.3933 87.7207 91.78C88.0941 91.18 88.3607 90.42 88.5207 89.5H87.1407C85.3141 89.5 83.9874 89.0733 83.1607 88.22C82.3474 87.3533 81.9407 85.9333 81.9407 83.96C81.9407 81.44 82.5274 79.6267 83.7007 78.52C84.8741 77.4133 86.4141 76.86 88.3207 76.86C89.6141 76.86 90.8207 77.0867 91.9407 77.54C93.0741 77.9933 93.9341 78.5 94.5207 79.06C94.5207 80.94 94.2074 83.3467 93.5807 86.28H96.6207L96.1207 89.5ZM85.9007 83.56C85.9007 84.5333 86.1007 85.2333 86.5007 85.66C86.9007 86.0733 87.5474 86.28 88.4407 86.28H89.2007L90.2207 80.22C89.8074 80.1267 89.4074 80.08 89.0207 80.08C88.0874 80.08 87.3341 80.3533 86.7607 80.9C86.1874 81.4333 85.9007 82.32 85.9007 83.56ZM104.886 73.5C105.459 73.5 105.872 73.6133 106.126 73.84C106.379 74.0667 106.506 74.4267 106.506 74.92C106.506 75.2533 106.459 75.6667 106.366 76.16C106.272 76.6533 106.132 77.32 105.946 78.16C105.572 79.8133 105.279 81.3333 105.066 82.72C104.852 84.0933 104.746 85.5333 104.746 87.04L103.166 89.5H97.2656L97.7656 86.28H100.606C100.672 85.2933 101.052 82.8733 101.746 79.02L102.186 76.56L101.066 74.96C102.412 73.9867 103.686 73.5 104.886 73.5ZM131.781 86.28L131.281 89.5H120.881C120.094 89.5 119.354 89.3333 118.661 89C117.981 88.6533 117.414 88.0867 116.961 87.3C116.521 86.5133 116.301 85.4933 116.301 84.24C116.301 82.6533 116.661 81.3067 117.381 80.2C118.101 79.0933 119.034 78.2667 120.181 77.72C121.341 77.1733 122.567 76.9 123.861 76.9C124.847 76.9 125.727 77.0533 126.501 77.36C127.274 77.6667 127.901 78.0467 128.381 78.5C128.874 78.9533 129.221 79.42 129.421 79.9L128.321 86.28H131.781ZM124.381 86.28L125.461 80.24C124.981 80.16 124.567 80.12 124.221 80.12C123.554 80.12 122.921 80.2467 122.321 80.5C121.734 80.74 121.254 81.1267 120.881 81.66C120.507 82.1933 120.321 82.8733 120.321 83.7C120.321 84.6333 120.547 85.3 121.001 85.7C121.454 86.0867 121.994 86.28 122.621 86.28H124.381ZM142.548 76.9C143.601 76.9 144.548 77.04 145.388 77.32C146.228 77.5867 146.921 77.9267 147.468 78.34C148.028 78.74 148.428 79.1467 148.668 79.56C148.361 80.72 148.061 82.0067 147.768 83.42C147.474 84.82 147.281 86.0333 147.188 87.06L145.588 89.5H132.448L132.948 86.28H136.108C136.041 85.9333 135.974 85.5 135.908 84.98C135.854 84.46 135.828 83.9467 135.828 83.44C135.828 81.24 136.434 79.6 137.648 78.52C138.874 77.44 140.508 76.9 142.548 76.9ZM142.788 80.14C140.761 80.14 139.748 81.42 139.748 83.98C139.748 84.4733 139.774 84.9267 139.828 85.34C139.894 85.7533 139.968 86.0667 140.048 86.28H143.188C143.201 85.7067 143.574 83.82 144.308 80.62C144.228 80.4867 144.061 80.3733 143.808 80.28C143.554 80.1867 143.214 80.14 142.788 80.14ZM140.148 86.44H140.128H140.148ZM143.088 75.1C142.541 75.1 142.108 74.96 141.788 74.68C141.468 74.4 141.308 74.0267 141.308 73.56C141.308 72.88 141.534 72.3267 141.988 71.9C142.441 71.4733 143.021 71.26 143.728 71.26C144.274 71.26 144.708 71.4067 145.028 71.7C145.361 71.98 145.528 72.3533 145.528 72.82C145.528 73.5 145.294 74.0533 144.828 74.48C144.374 74.8933 143.794 75.1 143.088 75.1ZM160.185 86.28L159.665 89.5H158.865C157.985 89.5 157.125 89.3733 156.285 89.12C155.765 89.3733 155.218 89.5 154.645 89.5C153.898 89.5 153.345 89.2667 152.985 88.8C152.625 88.3333 152.445 87.6867 152.445 86.86C152.445 86.22 152.532 85.3533 152.705 84.26C152.878 83.1667 153.152 81.5333 153.525 79.36L154.025 76.56L152.905 74.96C154.252 73.9867 155.532 73.5 156.745 73.5C157.318 73.5 157.725 73.6133 157.965 73.84C158.218 74.0667 158.345 74.4267 158.345 74.92C158.345 75.28 158.292 75.74 158.185 76.3C158.078 76.86 157.918 77.6067 157.705 78.54C157.332 80.2333 157.045 81.66 156.845 82.82C156.658 83.98 156.565 85.12 156.565 86.24V86.28H160.185ZM177.483 80.7C178.403 80.7 179.103 80.96 179.583 81.48C180.077 82 180.323 82.84 180.323 84C180.323 84.4533 180.29 84.98 180.223 85.58C180.157 86.18 180.083 86.6667 180.003 87.04L178.403 89.5H160.863L161.363 86.28H176.183C176.237 85.8267 176.263 85.48 176.263 85.24C176.263 84.36 175.85 83.92 175.023 83.92H167.083C165.883 83.92 164.93 83.6 164.223 82.96C163.53 82.3067 163.183 81.1467 163.183 79.48C163.183 78.8 163.237 78.0067 163.343 77.1C163.463 76.1933 163.59 75.4267 163.723 74.8C164.07 74.8933 164.623 74.98 165.383 75.06C166.143 75.14 167.01 75.18 167.983 75.18C168.823 75.18 170.27 75.1267 172.323 75.02C172.67 75.0067 173.31 74.98 174.243 74.94C175.177 74.9 175.957 74.88 176.583 74.88C177.45 74.88 178.103 74.9267 178.543 75.02C178.983 75.1133 179.29 75.2867 179.463 75.54C179.65 75.7933 179.743 76.1667 179.743 76.66C179.743 77.42 179.617 78.0533 179.363 78.56C178.91 78.4533 178.297 78.3667 177.523 78.3C176.75 78.22 175.943 78.18 175.103 78.18C174.343 78.18 172.717 78.24 170.223 78.36C168.517 78.44 167.503 78.48 167.183 78.48C167.077 79.0133 167.023 79.4267 167.023 79.72C167.023 80.0933 167.123 80.3533 167.323 80.5C167.523 80.6333 167.81 80.7 168.183 80.7H177.483Z" fill="black"/>
<path d="M19.0353 124.609C18.4635 122.475 19.7298 120.282 21.8637 119.71L77.8874 104.699C80.0213 104.127 82.2146 105.393 82.7864 107.527L83.8217 111.391C84.3934 113.525 83.1271 115.718 80.9932 116.29L24.9695 131.301C22.8357 131.873 20.6423 130.607 20.0706 128.473L19.0353 124.609Z" fill="#5F3468"/>
<rect x="87.1057" y="103.664" width="66" height="12" rx="4" transform="rotate(15 87.1057 103.664)" fill="#EAEAEA"/>
<path d="M151.035 124.609C150.464 122.475 151.73 120.282 153.864 119.71L209.888 104.699C212.021 104.127 214.215 105.393 214.787 107.527L215.822 111.391C216.394 113.525 215.127 115.718 212.993 116.29L156.97 131.301C154.836 131.873 152.642 130.607 152.071 128.473L151.035 124.609Z" fill="#904D70"/>
</svg>
