<svg width="28" height="34" viewBox="0 0 28 34" fill="none" xmlns="http://www.w3.org/2000/svg">
<path d="M25.0337 11.5073L28 13.2065V27.0683L15.9011 34L3.80219 27.0683V23.9301L6.22428 25.3188V25.6873C9.45193 27.5369 12.6734 29.3863 15.9011 31.2359C19.1288 29.3863 22.3506 27.5369 25.5783 25.6873V14.588L25.0337 14.2759V11.5073Z" fill="black"/>
<path d="M20.9402 9.16196V11.9287C19.2612 10.9656 17.5821 10.0024 15.9011 9.0389C12.6734 10.889 9.45193 12.7379 6.22428 14.588V20.6365L3.80219 19.249V13.2065L15.9011 6.27523L20.9402 9.16196Z" fill="#8B5E3C"/>
<path d="M24.1978 6.93586V20.792L12.0966 27.7278C8.06261 25.4156 4.03437 23.1042 0 20.792V6.93586C4.03437 4.62365 8.06261 2.31221 12.0966 0L24.1978 6.93586ZM12.1012 2.76672L2.42208 8.3116V19.4162L12.1012 24.9611L21.7761 19.4162V8.3116L12.1012 2.76672Z" fill="black"/>
</svg>
