<svg width="498" height="498" viewBox="0 0 498 498" fill="none" xmlns="http://www.w3.org/2000/svg">
<rect width="498" height="498" rx="58" fill="#141416"/>
<circle cx="249" cy="249" r="199" stroke="#C49E6E" stroke-width="6"/>
<path d="M129.024 255.91C139.153 306.589 182.93 343.353 233.574 343.868C265.334 344.212 292.973 330.984 312.544 306.245C320.441 296.281 330.913 274.807 331.772 267.077L332.287 261.923L276.149 261.064C245.248 260.548 219.497 259.518 218.81 258.831C218.123 258.143 244.733 257.628 277.866 257.628H338.295V263.641C338.295 269.825 339.669 271.028 342.93 267.764C345.677 265.015 360.269 265.53 365.076 268.795C379.497 278.071 379.669 302.294 365.42 315.522C359.239 321.363 346.879 326.345 338.295 326.345C329.368 326.345 330.913 324.456 342.244 321.535C354.089 318.615 363.36 311.743 367.651 302.81C377.437 282.538 360.956 263.984 341.9 273.948C337.78 276.01 336.578 277.728 336.578 281.507C336.578 290.612 329.712 312.774 322.845 326.174C310.827 349.194 290.398 366.545 265.849 374.619C247.823 380.46 219.325 380.46 201.128 374.619C164.733 362.594 133.316 326.861 124.733 287.348C121.814 274.636 121.127 249.897 123.188 237.872L124.389 231L125.763 238.731C126.449 243.026 127.994 250.756 129.024 255.91Z" fill="#C49E6E"/>
<path d="M227.555 122.606C226.04 124.613 223.699 129.832 222.459 134.114C218.053 148.699 222.046 157.664 241.601 177.468C254.27 190.447 256.336 193.391 258.401 199.948C262.119 212.526 259.365 224.167 250.001 234.604L246.421 238.619L248.624 234.337C251.516 228.315 251.24 215.871 247.935 208.779C246.283 205.3 239.535 197.539 230.997 189.243C219.017 177.869 216.125 174.256 213.508 167.566C208 153.248 211.305 137.994 223.01 125.149C229.483 118.19 231.686 116.852 227.555 122.606ZM222.322 205.166C234.578 214.934 238.02 222.695 234.853 234.203C233.889 237.816 232.374 241.562 231.548 242.365C230.171 243.57 230.171 243.168 231.273 240.224C233.338 234.872 233.201 226.576 230.722 221.09C229.62 218.413 225.214 212.66 221.082 208.244C214.335 201.286 208 191.785 208 188.842C208 188.306 209.79 190.581 211.994 193.926C214.059 197.272 218.741 202.356 222.322 205.166Z" fill="#C49E6E"/>
<circle cx="382" cy="102" r="38" fill="#C49E6E" stroke="#141416" stroke-width="8"/>
</svg>
