<svg width="32" height="27" viewBox="0 0 32 27" fill="none" xmlns="http://www.w3.org/2000/svg">
<path fill-rule="evenodd" clip-rule="evenodd" d="M20.0101 25.6036C16.9595 26.5867 13.8872 26.3643 10.7932 24.9373C13.3884 27.4439 16.4607 27.666 20.0101 25.6036Z" fill="white"/>
<path fill-rule="evenodd" clip-rule="evenodd" d="M9.22824 22.4834C13.1792 26.1796 17.7973 26.3008 23.0824 22.8469C18.0256 25.2014 13.4076 25.0805 9.22824 22.4834Z" fill="white"/>
<path fill-rule="evenodd" clip-rule="evenodd" d="M7.63402 19.8479C13.181 24.7047 18.8328 24.8562 24.5895 20.3024C18.931 23.4815 13.2791 23.3301 7.63402 19.8479Z" fill="white"/>
<path fill-rule="evenodd" clip-rule="evenodd" d="M6.88047 18.7878C18.9329 23.9208 24.5667 20.8632 24.8089 18.042C24.8382 17.7008 24.7886 17.3631 24.6621 17.0438C24.0744 15.5604 21.8254 14.4729 18.0969 15.274C31.9772 17.7232 16.9666 24.2447 5.98188 17.3642C5.98188 17.3642 5.63416 20.2723 7.92362 23.2713C6.8512 21.5749 6.88047 18.7878 6.88047 18.7878Z" fill="white"/>
<path fill-rule="evenodd" clip-rule="evenodd" d="M25.8454 24.7646C24.7658 25.6225 23.3025 25.7302 22.1185 25.0391C22.039 25.9049 22.3675 26.4199 23.104 26.5839C24.7837 27.0557 26.5726 26.4643 27.687 25.0685C28.8015 23.673 29.0384 21.7276 28.2939 20.0848C27.5496 18.4419 25.9593 17.4009 24.2203 17.4179C24.3468 17.7372 24.3964 18.0752 24.3671 18.4162C25.703 18.6596 26.7741 19.7074 27.0948 21.0844C27.4155 22.4615 26.925 23.9063 25.8456 24.7642" fill="white"/>
<path fill-rule="evenodd" clip-rule="evenodd" d="M16.3715 17.7891C20.251 11.4318 12.545 10.036 13.6896 6.50077C14.0242 5.46726 14.9686 4.7857 16.0117 4.82494C17.4464 4.87889 18.9819 6.79855 18.0312 7.9C17.7418 8.23544 17.2893 8.35945 16.8797 8.21532C17.1966 8.04762 17.3727 7.6842 17.3144 7.31798C17.256 6.95176 16.9767 6.66753 16.6249 6.61638C16.2732 6.56522 15.9302 6.75884 15.7784 7.09423C15.2401 7.76785 15.2857 8.76022 15.883 9.37686C16.4806 9.99344 17.4305 10.0282 18.0681 9.45717C19.1734 8.17585 19.1084 6.20951 17.9213 5.01086C16.734 3.81221 14.8517 3.81221 13.6644 5.01086C10.7628 7.94046 15.0584 10.2948 16.3 12.8499C15.2457 11.0667 12.2907 10.5176 11.5325 12.8009C11.2406 13.68 11.4904 14.6563 12.1635 15.2654C12.8367 15.8746 13.7967 15.9939 14.5875 15.5662C14.9853 15.3939 15.252 14.9964 15.2707 14.5465C15.2895 14.0967 15.0573 13.6763 14.6752 13.4684C14.2932 13.2605 13.8304 13.3028 13.4888 13.5768C13.4315 13.879 13.5696 14.185 13.8291 14.3312C14.0888 14.4772 14.409 14.4293 14.6191 14.213C14.3299 14.7572 13.733 15.0382 13.1515 14.9039C12.5701 14.7693 12.1421 14.2515 12.0994 13.6307C11.9327 11.1996 15.5947 12.2345 16.4897 14.7913C16.8388 15.7889 16.78 16.8653 16.3715 17.7891Z" fill="white"/>
<path fill-rule="evenodd" clip-rule="evenodd" d="M0 16.7226C0 16.1705 0.42817 15.723 0.956456 15.723C1.48474 15.723 1.91292 16.1705 1.91292 16.7226C1.91292 17.2748 1.48474 17.7223 0.956456 17.7223C0.42817 17.7223 0 17.2748 0 16.7226Z" fill="white"/>
<path fill-rule="evenodd" clip-rule="evenodd" d="M0.545045 12.3945C0.681807 11.8612 1.2063 11.5448 1.71648 11.6877C2.22666 11.8307 2.52947 12.3788 2.39271 12.912C2.25594 13.4453 1.73145 13.7618 1.22127 13.6188C0.711082 13.4758 0.40828 12.9277 0.545045 12.3945Z" fill="white"/>
<path fill-rule="evenodd" clip-rule="evenodd" d="M2.14353 8.36131C2.40768 7.88322 2.9925 7.7195 3.45017 7.99554C3.90762 8.27162 4.06427 8.88285 3.80013 9.36095C3.53599 9.83905 2.95116 10.003 2.49371 9.72697C2.03627 9.45088 1.87939 8.83965 2.14353 8.36131Z" fill="white"/>
<path fill-rule="evenodd" clip-rule="evenodd" d="M4.6862 4.89805C5.05962 4.50776 5.66522 4.50776 6.03887 4.89805C6.41228 5.28856 6.41228 5.9213 6.03887 6.31182C5.66546 6.70233 5.05986 6.70233 4.6862 6.31182C4.31278 5.92149 4.31278 5.28856 4.6862 4.89805Z" fill="white"/>
<path fill-rule="evenodd" clip-rule="evenodd" d="M7.99981 2.24057C8.45727 1.9645 9.04231 2.12822 9.30626 2.60632C9.5704 3.08443 9.41374 3.6959 8.95628 3.97197C8.49882 4.24804 7.91379 4.08432 7.64965 3.60598C7.38551 3.12787 7.54216 2.51641 7.99981 2.24057Z" fill="white"/>
<path fill-rule="evenodd" clip-rule="evenodd" d="M11.8587 0.569892C12.3689 0.426953 12.8934 0.743433 13.0302 1.27665C13.1669 1.80988 12.8641 2.35805 12.3539 2.50099C11.8438 2.64393 11.3193 2.32745 11.1825 1.79423C11.0457 1.261 11.3486 0.712834 11.8587 0.569892Z" fill="white"/>
<path fill-rule="evenodd" clip-rule="evenodd" d="M15.9999 0C16.5282 0 16.9564 0.447507 16.9564 0.999648C16.9564 1.55179 16.5282 1.9993 15.9999 1.9993C15.4716 1.9993 15.0434 1.55179 15.0434 0.999648C15.0434 0.447507 15.4716 0 15.9999 0Z" fill="white"/>
<path fill-rule="evenodd" clip-rule="evenodd" d="M20.141 0.569892C20.6512 0.712834 20.954 1.261 20.8173 1.79423C20.6805 2.32745 20.156 2.64393 19.6458 2.50099C19.1356 2.35805 18.8328 1.81011 18.9696 1.27665C19.1064 0.743433 19.6309 0.426953 20.141 0.569892Z" fill="white"/>
<path fill-rule="evenodd" clip-rule="evenodd" d="M24 2.24057C24.4574 2.51664 24.614 3.12787 24.3501 3.60598C24.086 4.08408 23.5012 4.24804 23.0435 3.97197C22.586 3.6959 22.4292 3.08466 22.6933 2.60632C22.9575 2.12822 23.5423 1.9645 24 2.24057Z" fill="white"/>
<path fill-rule="evenodd" clip-rule="evenodd" d="M27.3136 4.89805C27.687 5.28856 27.687 5.9213 27.3136 6.31182C26.9401 6.70233 26.3345 6.70233 25.9609 6.31182C25.5875 5.92149 25.5875 5.28856 25.9609 4.89805C26.3343 4.50776 26.94 4.50776 27.3136 4.89805Z" fill="white"/>
<path fill-rule="evenodd" clip-rule="evenodd" d="M29.8562 8.36131C30.1204 8.83941 29.9637 9.45088 29.5061 9.72697C29.0486 10.003 28.4636 9.83905 28.1994 9.36095C27.9353 8.88285 28.0921 8.27138 28.5496 7.99554C29.0071 7.7195 29.5921 7.88322 29.8562 8.36131Z" fill="white"/>
<path fill-rule="evenodd" clip-rule="evenodd" d="M31.4547 12.3945C31.5915 12.9277 31.2887 13.4758 30.7785 13.6188C30.2683 13.7618 29.7438 13.4453 29.6071 12.912C29.4703 12.3788 29.7731 11.8307 30.2833 11.6877C30.7935 11.5448 31.318 11.8612 31.4547 12.3945Z" fill="white"/>
<path fill-rule="evenodd" clip-rule="evenodd" d="M32 16.7226C32 17.2748 31.5718 17.7223 31.0435 17.7223C30.5152 17.7223 30.0871 17.2748 30.0871 16.7226C30.0871 16.1705 30.5152 15.723 31.0435 15.723C31.5718 15.723 32 16.1705 32 16.7226Z" fill="white"/>
</svg>
