<svg width="32" height="33" viewBox="0 0 32 33" fill="none" xmlns="http://www.w3.org/2000/svg">
<path d="M27.2853 4.01361V3.76456C24.5568 3.76456 21.8561 3.0174 19.5824 1.46558C18.5522 0.756731 17.3179 0.344828 15.9814 0.344828C14.6543 0.344828 13.4107 0.756731 12.3805 1.46558C10.1067 3.0174 7.40603 3.76456 4.6775 3.76456V4.01361C4.6775 7.05019 3.58235 9.9335 1.74477 12.2996C0.853823 13.449 0.315539 14.9146 0.315539 16.5048C0.315539 18.0949 0.844543 19.5509 1.74477 20.71C3.58235 23.076 4.6775 25.9688 4.6775 28.996V29.2449C7.40603 29.2449 10.1067 29.9922 12.3805 31.5439C13.4107 32.2527 14.645 32.6647 15.9814 32.6647C17.3086 32.6647 18.5522 32.2527 19.5824 31.5439C21.8561 29.9922 24.5568 29.2449 27.2853 29.2449V28.996C27.2853 25.9593 28.3805 23.076 30.2182 20.71C31.1091 19.5605 31.6473 18.0949 31.6473 16.5048C31.6473 14.9146 31.1184 13.4586 30.2182 12.2996C28.3805 9.9335 27.2853 7.05019 27.2853 4.01361Z" fill="white"/>
<path d="M15.9907 33C14.6357 33 13.3271 32.5978 12.2042 31.8218C10.0603 30.3562 7.46173 29.5802 4.68677 29.5802C4.50117 29.5802 4.35267 29.4269 4.35267 29.2354V28.9864C4.35267 26.1221 3.3689 23.3251 1.4942 20.9208C0.519722 19.6563 0 18.1236 0 16.5048C0 14.8764 0.519722 13.3533 1.50348 12.0888C3.3689 9.67488 4.36195 6.88736 4.36195 4.02323V3.76458C4.36195 3.57299 4.51045 3.41973 4.69605 3.41973C7.471 3.41973 10.0696 2.64383 12.2134 1.17823C13.3364 0.4119 14.645 0 16 0C17.355 0 18.6636 0.40232 19.7866 1.17823C21.9304 2.64383 24.5289 3.41973 27.3039 3.41973C27.4896 3.41973 27.638 3.57299 27.638 3.76458V4.01364C27.638 6.8778 28.6219 9.67488 30.4965 12.0792C31.4803 13.3437 32 14.8764 32 16.4952C32 18.1236 31.4803 19.6467 30.4965 20.9112C28.6312 23.3251 27.638 26.1126 27.638 28.9769V29.2258C27.638 29.4173 27.4896 29.5706 27.3039 29.5706C24.5289 29.5706 21.9304 30.3466 19.7866 31.8122C18.6543 32.5978 17.3457 33 15.9907 33ZM5.03017 28.9001C7.8051 28.9577 10.413 29.7717 12.5754 31.2565C13.587 31.9464 14.7657 32.3199 15.9907 32.3199C17.2065 32.3199 18.3944 31.956 19.406 31.2565C21.5684 29.7717 24.1762 28.9673 26.9512 28.9001C26.9697 25.9019 28.0093 22.9994 29.9583 20.4897C30.8399 19.3498 31.3132 17.9704 31.3132 16.5048C31.3132 15.0392 30.8492 13.6598 29.9583 12.5199C28.0093 10.0102 26.979 7.1077 26.9512 4.10943C24.167 4.05195 21.5684 3.23773 19.406 1.75297C18.3944 1.06328 17.2158 0.689695 15.9907 0.689695C14.7749 0.689695 13.587 1.0537 12.5754 1.75297C10.413 3.23773 7.8051 4.04238 5.03017 4.10943C5.01159 7.1077 3.97215 10.0102 2.0232 12.5199C1.14153 13.6598 0.668213 15.0392 0.668213 16.5048C0.668213 17.9704 1.13225 19.3498 2.0232 20.4897C3.97215 22.9994 5.01159 25.9019 5.03017 28.9001Z" fill="white"/>
<path d="M15.9907 32.0803C14.8121 32.0803 13.6798 31.7259 12.7053 31.0554C10.5986 29.6089 8.0557 28.7851 5.35499 28.6703C5.29932 28.6703 5.25292 28.6222 5.24362 28.5553C5.15082 25.624 4.1021 22.7887 2.19954 20.3364C1.34571 19.2348 0.900237 17.9129 0.900237 16.4952C0.900237 15.0871 1.35499 13.7556 2.19954 12.654C4.1021 10.2017 5.15082 7.35675 5.24362 4.43513C5.24362 4.37764 5.29002 4.32974 5.35499 4.32018C8.0557 4.20523 10.5893 3.38142 12.7053 1.93498C13.6798 1.26444 14.8214 0.910016 15.9907 0.910016C17.1694 0.910016 18.3016 1.26444 19.2761 1.93498C21.3828 3.38142 23.9258 4.20523 26.6266 4.32018C26.6822 4.32018 26.7286 4.36808 26.7379 4.43513C26.8306 7.36632 27.8794 10.2017 29.7818 12.654C30.6358 13.7556 31.0813 15.0775 31.0813 16.4952C31.0813 17.9033 30.6266 19.2348 29.7818 20.3364C27.8794 22.7887 26.8306 25.6336 26.7379 28.5553C26.7379 28.6127 26.6915 28.6607 26.6266 28.6703C23.9258 28.7851 21.3921 29.6089 19.2761 31.0554C18.3016 31.7259 17.1694 32.0803 15.9907 32.0803ZM5.46637 28.4498C8.16705 28.584 10.71 29.4173 12.826 30.8638C13.7633 31.5057 14.8585 31.8505 15.9907 31.8505C17.123 31.8505 18.2181 31.5152 19.1555 30.8638C21.2715 29.4173 23.8145 28.584 26.515 28.4498C26.6266 25.5092 27.6937 22.6546 29.6056 20.1927C30.4223 19.1295 30.8584 17.8554 30.8584 16.4952C30.8584 15.135 30.4223 13.861 29.6056 12.7977C27.6937 10.3358 26.6266 7.48127 26.515 4.54049C23.8145 4.40638 21.2715 3.57302 19.1555 2.12656C18.2181 1.48476 17.123 1.13991 15.9907 1.13991C14.8585 1.13991 13.7633 1.47518 12.826 2.12656C10.71 3.57302 8.16705 4.40638 5.46637 4.54049C5.35499 7.48127 4.2877 10.3358 2.37588 12.7977C1.55917 13.8514 1.12298 15.135 1.12298 16.4952C1.12298 17.8554 1.55917 19.1295 2.37588 20.1927C4.2877 22.6546 5.35499 25.5092 5.46637 28.4498Z" fill="black"/>
<path d="M15.9907 19.1486C15.9258 19.1486 15.8794 19.1007 15.8794 19.0337V4.23397C15.8794 4.16692 15.9258 4.11902 15.9907 4.11902C16.0557 4.11902 16.1021 4.16692 16.1021 4.23397V19.0241C16.1021 19.0911 16.0557 19.1486 15.9907 19.1486Z" fill="black"/>
<path d="M23.1555 11.7438H8.82599C8.76102 11.7438 8.71462 11.6959 8.71462 11.6289C8.71462 11.5619 8.76102 11.5141 8.82599 11.5141H23.1555C23.2204 11.5141 23.2668 11.5619 23.2668 11.6289C23.2668 11.6959 23.2204 11.7438 23.1555 11.7438Z" fill="black"/>
<path d="M21.058 16.9742C21.0302 16.9742 21.0023 16.9646 20.9745 16.9358L10.8492 6.48505C10.8028 6.43715 10.8028 6.3701 10.8492 6.3222C10.8956 6.2743 10.9606 6.2743 11.007 6.3222L21.1415 16.7826C21.1879 16.8305 21.1879 16.8975 21.1415 16.9454C21.1137 16.9646 21.0858 16.9742 21.058 16.9742Z" fill="black"/>
<path d="M10.9234 16.9741C10.8956 16.9741 10.8678 16.9646 10.8399 16.9358C10.7935 16.8879 10.7935 16.8209 10.8399 16.773L20.9745 6.31261C21.0209 6.26472 21.0858 6.26472 21.1323 6.31261C21.1787 6.36051 21.1787 6.42756 21.1323 6.47546L11.007 16.9454C10.9791 16.9646 10.9513 16.9741 10.9234 16.9741Z" fill="black"/>
<path d="M13.7355 17.6351C13.7262 17.6351 13.7077 17.6351 13.6984 17.6255C13.6427 17.6064 13.6149 17.5393 13.6334 17.4723L18.1439 5.69955C18.1624 5.64209 18.2274 5.61335 18.2924 5.6325C18.348 5.65166 18.3759 5.71871 18.3573 5.78576L13.8376 17.5585C13.819 17.6064 13.7819 17.6351 13.7355 17.6351Z" fill="black"/>
<path d="M18.5337 5.11524C18.5244 5.11524 18.5058 5.11524 18.4965 5.10567C18.4408 5.08652 18.413 5.01947 18.4316 4.95242L18.8214 3.92745C18.8399 3.86997 18.9049 3.84122 18.9699 3.86038C19.0255 3.87956 19.0534 3.94661 19.0348 4.01366L18.645 5.03862C18.6172 5.08652 18.5801 5.11524 18.5337 5.11524Z" fill="black"/>
<path d="M13.058 19.4073C13.0487 19.4073 13.0302 19.4073 13.0209 19.3977C12.9652 19.3785 12.9374 19.3115 12.9559 19.2444L13.3457 18.2195C13.3643 18.162 13.4292 18.1333 13.4942 18.1524C13.5499 18.1716 13.5777 18.2386 13.5592 18.3057L13.1694 19.3306C13.1415 19.3785 13.0951 19.4073 13.058 19.4073Z" fill="black"/>
<path d="M21.6984 14.0813C21.6891 14.0813 21.6705 14.0813 21.6613 14.0717L10.2552 9.41629C10.1995 9.39711 10.1717 9.33006 10.1903 9.263C10.2088 9.20554 10.2738 9.1768 10.3388 9.19595L21.7448 13.8514C21.8005 13.8705 21.8283 13.9376 21.8097 14.0047C21.7819 14.0526 21.7448 14.0813 21.6984 14.0813Z" fill="black"/>
<path d="M23.4154 14.7806C23.4061 14.7806 23.3874 14.7806 23.3781 14.771L22.3852 14.3687C22.3295 14.3495 22.3016 14.2824 22.3202 14.2154C22.3388 14.1579 22.4037 14.1292 22.4687 14.1483L23.4618 14.5507C23.5174 14.5698 23.5453 14.6369 23.5267 14.7039C23.4989 14.7518 23.4618 14.7806 23.4154 14.7806Z" fill="black"/>
<path d="M9.56844 9.11931C9.55917 9.11931 9.54059 9.11931 9.53132 9.10972L8.53827 8.70741C8.4826 8.68825 8.45475 8.6212 8.47332 8.55415C8.49187 8.49666 8.55685 8.46794 8.6218 8.4871L9.61484 8.88941C9.67054 8.90857 9.69837 8.97562 9.67982 9.04267C9.65197 9.10016 9.60557 9.11931 9.56844 9.11931Z" fill="black"/>
<path d="M18.4316 17.5585C18.3852 17.5585 18.348 17.5298 18.3295 17.4915L13.4478 5.87202C13.42 5.81455 13.4478 5.7475 13.5035 5.71876C13.5592 5.69001 13.6241 5.71876 13.652 5.77622L18.5244 17.3957C18.5522 17.4531 18.5244 17.5202 18.4687 17.5489C18.4594 17.5585 18.4408 17.5585 18.4316 17.5585Z" fill="black"/>
<path d="M13.2436 5.2014C13.1972 5.2014 13.1601 5.17265 13.1415 5.13435L12.7146 4.11895C12.6868 4.06149 12.7146 3.99443 12.7703 3.96569C12.826 3.93695 12.891 3.96569 12.9188 4.02315L13.3457 5.03855C13.3736 5.09601 13.3457 5.16309 13.29 5.19181C13.2715 5.2014 13.2622 5.2014 13.2436 5.2014Z" fill="black"/>
<path d="M19.1647 19.3115C19.1183 19.3115 19.0812 19.2827 19.0627 19.2444L18.6357 18.229C18.6079 18.1715 18.6357 18.1045 18.6914 18.0758C18.7471 18.047 18.8121 18.0758 18.8399 18.1332L19.2668 19.1486C19.2947 19.2061 19.2668 19.2731 19.2111 19.3019C19.1926 19.3115 19.1833 19.3115 19.1647 19.3115Z" fill="black"/>
<path d="M10.3666 14.2633C10.3202 14.2633 10.2831 14.2346 10.2645 14.1962C10.2367 14.1388 10.2645 14.0717 10.3202 14.043L21.5777 9.01393C21.6334 8.98521 21.6984 9.01395 21.7262 9.07141C21.7541 9.1289 21.7262 9.19595 21.6706 9.22467L10.413 14.2537C10.3945 14.2633 10.3759 14.2633 10.3666 14.2633Z" fill="black"/>
<path d="M22.3388 8.90857C22.2924 8.90857 22.2552 8.87982 22.2367 8.84151C22.2088 8.78403 22.2367 8.717 22.2924 8.68826L23.2761 8.24761C23.3317 8.21887 23.3969 8.24761 23.4247 8.3051C23.4525 8.36256 23.4247 8.42961 23.3688 8.45835L22.3852 8.89898C22.3666 8.90857 22.348 8.90857 22.3388 8.90857Z" fill="black"/>
<path d="M8.66822 15.02C8.62182 15.02 8.5847 14.9913 8.56615 14.953C8.5383 14.8955 8.56614 14.8285 8.62182 14.7997L9.60559 14.3591C9.66126 14.3303 9.72624 14.3591 9.75406 14.4166C9.78191 14.474 9.75406 14.5411 9.69839 14.5698L8.71462 15.0105C8.69607 15.02 8.6775 15.02 8.66822 15.02Z" fill="black"/>
<path d="M16.464 6.3701C16.4176 6.36051 16.3805 6.36051 16.3341 6.36051C16.0371 6.36051 15.768 6.49462 15.5916 6.72452C15.4246 6.6 15.2297 6.52336 15.0162 6.52336C14.9049 6.52336 14.7842 6.54251 14.6821 6.59041C12.8724 7.2897 11.6659 9.33003 11.6659 11.6673C11.6659 14.0717 12.9745 16.1887 14.8585 16.8017C14.9513 16.8305 15.0534 16.8496 15.1462 16.8496C15.4153 16.8496 15.6659 16.7347 15.8422 16.5335C15.8515 16.5239 15.8515 16.5239 15.8608 16.5144C15.8701 16.5239 15.8701 16.5335 15.8794 16.5431C16.065 16.773 16.3341 16.9071 16.6218 16.9071C16.696 16.9071 16.7703 16.8975 16.8445 16.8784C18.8492 16.3803 20.297 14.1867 20.297 11.6578C20.3062 8.93728 18.6543 6.65746 16.464 6.3701Z" fill="black"/>
<path d="M15.109 16.0929C15.3411 15.8343 15.5638 15.5661 15.7309 15.2499C16.232 14.3304 16.5197 13.2479 16.3155 12.2038C16.1578 11.3992 15.6009 10.8819 15.1647 10.2305C14.5615 9.32049 14.58 8.22848 14.9698 7.27057C13.5035 7.83573 12.4362 9.5887 12.4362 11.6578C12.4455 13.8035 13.5777 15.5852 15.109 16.0929Z" fill="white"/>
<path d="M15.109 16.4473C15.0719 16.4473 15.0441 16.4378 15.007 16.4282C13.2993 15.863 12.1021 13.8993 12.1021 11.6674C12.1021 9.48331 13.2065 7.58665 14.8492 6.95444C14.9791 6.90654 15.1183 6.93528 15.2111 7.04065C15.3039 7.13644 15.3318 7.2897 15.2761 7.41424C15.0534 7.96983 14.7749 9.04269 15.4339 10.0485C15.5452 10.2209 15.6659 10.3838 15.7865 10.537C16.1392 11.0064 16.5011 11.4854 16.6311 12.1559C16.8817 13.4586 16.4269 14.6656 16.0093 15.4415C15.8051 15.8055 15.5452 16.1216 15.3411 16.342C15.2947 16.3994 15.2019 16.4473 15.109 16.4473ZM14.4223 7.96983C13.4292 8.70741 12.7796 10.1156 12.7796 11.6578C12.7796 13.5065 13.6891 15.1254 15.0162 15.681C15.1647 15.5086 15.3225 15.3074 15.4432 15.0775C15.9629 14.1196 16.1578 13.1234 16 12.2708C15.8979 11.7632 15.6009 11.3704 15.2854 10.9489C15.1555 10.7861 15.0255 10.6041 14.9049 10.4221C14.4223 9.7228 14.2645 8.86069 14.4223 7.96983Z" fill="white"/>
<path d="M16.3619 7.10767C16.1485 7.68242 16.0186 8.26674 16.1299 8.88939C16.1856 9.20549 16.2877 9.49288 16.3991 9.78024C16.7889 10.7286 17.4107 11.5907 17.4756 12.6827C17.5406 13.8418 17.1508 15.0966 16.6589 16.1599C18.2923 15.748 19.536 13.8993 19.536 11.6673C19.5453 9.29172 18.1531 7.34716 16.3619 7.10767Z" fill="white"/>
<path d="M16.6682 16.5048C16.5661 16.5048 16.4733 16.4569 16.4083 16.3802C16.3248 16.2749 16.3063 16.1312 16.3619 16.0162C16.7517 15.1637 17.2065 13.9088 17.1415 12.7114C17.1044 12.0026 16.7981 11.3991 16.4826 10.7477C16.3527 10.4795 16.2135 10.2113 16.1021 9.92391C15.9536 9.57906 15.8608 9.26296 15.8051 8.95644C15.6937 8.34338 15.7773 7.71114 16.0464 6.98313C16.1021 6.82988 16.2506 6.74367 16.3991 6.76282C18.3759 7.03103 19.8701 9.13844 19.8701 11.6673C19.8701 14.0142 18.5522 16.0545 16.7332 16.5048C16.7146 16.5048 16.696 16.5048 16.6682 16.5048ZM16.5847 7.50042C16.4269 7.98894 16.3898 8.42 16.464 8.8319C16.5104 9.09054 16.594 9.34919 16.7146 9.6557C16.826 9.91435 16.9466 10.1634 17.0766 10.4316C17.4107 11.1117 17.7633 11.8206 17.8097 12.6731C17.8654 13.6789 17.6056 14.7039 17.29 15.5373C18.4316 14.8667 19.2019 13.3724 19.2019 11.6673C19.2019 9.59824 18.0974 7.86443 16.5847 7.50042Z" fill="white"/>
<path d="M17.9211 12.4816C18.0139 12.0697 18.0696 11.6386 18.051 11.2076C18.0139 10.5658 17.7541 10.0293 17.5128 9.55996C17.42 9.37795 17.3364 9.20554 17.2622 9.0331C17.1787 8.84154 17.1322 8.67869 17.1044 8.51584C17.1044 8.51584 17.1044 8.51584 17.1044 8.50628C17.058 8.23804 17.3828 8.04648 17.587 8.22848C18.1624 8.70743 18.5429 9.56955 18.5429 10.5275C18.5429 11.2842 18.3109 11.9931 17.9211 12.4816Z" fill="black"/>
<path d="M24.5846 21.275H7.39675C7.33178 21.275 7.28538 21.2271 7.28538 21.1601C7.28538 21.0931 7.33178 21.0452 7.39675 21.0452H24.5753C24.6405 21.0452 24.6868 21.0931 24.6868 21.1601C24.6868 21.2271 24.6405 21.275 24.5846 21.275Z" fill="black"/>
<path d="M24.5846 25.9784H7.39675C7.33178 25.9784 7.28538 25.9303 7.28538 25.8634C7.28538 25.7964 7.33178 25.7486 7.39675 25.7486H24.5753C24.6405 25.7486 24.6868 25.7964 24.6868 25.8634C24.6961 25.9208 24.6405 25.9784 24.5846 25.9784Z" fill="black"/>
<path d="M8.51045 21.8978L8.48262 22.1948H7.82368C7.768 22.1948 7.73088 22.2235 7.68448 22.2714C7.64735 22.3193 7.6195 22.3863 7.6195 22.463L7.44318 24.5322C7.43388 24.6469 7.46173 24.7428 7.5174 24.8002C7.5731 24.8483 7.63805 24.877 7.73088 24.8674C7.8144 24.8578 7.88865 24.8289 7.9629 24.762C8.02785 24.7046 8.06497 24.6182 8.07425 24.5322H8.36197C8.3434 24.7046 8.27842 24.8483 8.1485 24.9726C8.01857 25.0972 7.87008 25.1546 7.70303 25.1546C7.5731 25.1546 7.4803 25.1546 7.43388 25.145C7.2761 25.1163 7.1369 25.059 7.03481 24.9535C6.92346 24.8385 6.86776 24.695 6.88633 24.5322L7.05338 22.5396C7.07193 22.3384 7.15546 22.1852 7.29468 22.0702C7.43388 21.9649 7.59165 21.9074 7.77728 21.9074H8.51045V21.8978Z" fill="black"/>
<path d="M10.3944 22.5779L10.2367 24.4554C10.2181 24.6469 10.1346 24.8098 9.99536 24.9344C9.83759 25.0685 9.65199 25.1355 9.41069 25.1355H9.22507C8.99304 25.1355 8.81672 25.0685 8.68679 24.9344C8.55685 24.8098 8.50117 24.6469 8.51975 24.4554L8.6775 22.5779C8.69607 22.3863 8.77959 22.2235 8.92809 22.0894C9.07657 21.9553 9.27147 21.8978 9.50349 21.8978H9.68911C9.92114 21.8978 10.0975 21.9649 10.2274 22.0894C10.348 22.2235 10.413 22.3863 10.3944 22.5779ZM9.82831 22.4917C9.83759 22.4055 9.80976 22.3384 9.76336 22.281C9.70766 22.2235 9.64271 22.1948 9.56846 22.1948C9.48494 22.1948 9.41997 22.2235 9.35499 22.281C9.29004 22.3384 9.25292 22.4151 9.25292 22.4917L9.07657 24.5417C9.06729 24.6278 9.08587 24.695 9.14154 24.7524C9.19722 24.8098 9.26219 24.8385 9.34572 24.8385C9.42924 24.8385 9.50349 24.8098 9.55917 24.7524C9.62414 24.695 9.65199 24.6182 9.66126 24.5322L9.82831 22.4917Z" fill="black"/>
<path d="M12.0928 21.8978L12.0742 22.1948H11.174L11.0719 23.373H11.6938L11.6659 23.6699H11.0441L10.9234 25.145H10.348L10.6265 21.8978H12.0928Z" fill="black"/>
<path d="M13.717 21.8978L13.6984 22.1948H12.7982L12.6961 23.373H13.3179L13.29 23.6699H12.6682L12.5476 25.145H11.9722L12.2506 21.8978H13.717Z" fill="black"/>
<path d="M15.2761 21.8978L15.2483 22.1948H14.6729C14.5893 22.1948 14.5151 22.2235 14.4594 22.281C14.3944 22.3385 14.3666 22.4151 14.3573 22.4917L14.2831 23.3634H14.9977L14.9791 23.6604H14.2645L14.1903 24.5417C14.181 24.6278 14.1995 24.695 14.2552 24.7524C14.3109 24.8098 14.3759 24.8387 14.4594 24.8387H15.0348L15.007 25.1259H14.2274C14.0418 25.1259 13.8933 25.059 13.7726 24.9248C13.652 24.7907 13.6056 24.6278 13.6241 24.4458L13.7819 22.5684C13.8005 22.3768 13.8747 22.2235 14.0232 22.0894C14.1624 21.9553 14.3295 21.8883 14.5058 21.8883H15.2761V21.8978Z" fill="black"/>
<path d="M16.8353 21.8978L16.8074 22.1948H16.2413C16.1578 22.1948 16.0835 22.2235 16.0279 22.281C15.9629 22.3385 15.9351 22.4151 15.9258 22.4917L15.8515 23.3634H16.5661L16.5476 23.6604H15.833L15.7587 24.5417C15.7494 24.6278 15.768 24.695 15.8237 24.7524C15.8794 24.8098 15.9443 24.8387 16.0279 24.8387H16.6032L16.5754 25.1259H15.7958C15.6102 25.1259 15.4617 25.059 15.3411 24.9248C15.2204 24.7907 15.174 24.6278 15.1926 24.4458L15.3504 22.5684C15.3689 22.3768 15.4432 22.2235 15.5917 22.0894C15.7309 21.9553 15.8979 21.8883 16.0742 21.8883H16.8353V21.8978Z" fill="black"/>
<path d="M19.0998 21.8978L19.0719 22.1948H18.8028C18.6636 22.1948 18.5615 22.2139 18.5058 22.2522C18.3944 22.3289 18.348 22.4246 18.348 22.5396C18.348 22.6545 18.3944 22.7695 18.478 22.8844L19.007 23.5933C19.1369 23.7657 19.2019 23.9573 19.2019 24.1873C19.2019 24.4937 19.0905 24.7333 18.8678 24.9152C18.6729 25.0685 18.4316 25.145 18.1346 25.145H17.7077L17.7355 24.8483H18.1067C18.2738 24.8483 18.4037 24.8098 18.4965 24.7237C18.5893 24.6469 18.6357 24.5417 18.6357 24.4171C18.6357 24.283 18.5893 24.1488 18.4965 24.0245L17.9118 23.1814C17.8283 23.0665 17.7912 22.9323 17.7912 22.7791C17.7912 22.5109 17.8933 22.2905 18.1067 22.1181C18.2831 21.9744 18.4965 21.8978 18.7564 21.8978H19.0998Z" fill="black"/>
<path d="M21.3364 21.8978L21.1044 24.6854C21.0951 24.7907 21.1415 24.8483 21.2436 24.8483L21.2158 25.145H20.9745C20.8353 25.145 20.7239 25.1068 20.6404 25.0303C20.5568 24.9535 20.5197 24.8385 20.5383 24.6854L20.6218 23.6699H20.0835L19.9629 25.145H19.3875L19.6381 22.1948H19.4803L19.5081 21.8978H20.2413L20.1207 23.373H20.6589L20.7796 21.8978H21.3364Z" fill="black"/>
<path d="M23.3132 22.5779L23.1555 24.4554C23.1369 24.6469 23.0534 24.8098 22.9142 24.9344C22.7564 25.0685 22.5708 25.1355 22.3295 25.1355H22.1439C21.9118 25.1355 21.7355 25.0685 21.6056 24.9344C21.4756 24.8098 21.42 24.6469 21.4385 24.4554L21.5963 22.5779C21.6149 22.3863 21.6984 22.2235 21.8469 22.0894C21.9954 21.9553 22.1903 21.8978 22.4223 21.8978H22.6079C22.8399 21.8978 23.0163 21.9649 23.1462 22.0894C23.2761 22.2235 23.3317 22.3863 23.3132 22.5779ZM22.7564 22.4917C22.7657 22.4055 22.7378 22.3384 22.6914 22.281C22.6357 22.2235 22.5708 22.1948 22.4965 22.1948C22.413 22.1948 22.348 22.2235 22.2831 22.281C22.2181 22.3384 22.181 22.4151 22.181 22.4917L21.9954 24.5513C21.9861 24.6374 22.0047 24.7046 22.0603 24.762C22.116 24.8193 22.181 24.8483 22.2645 24.8483C22.348 24.8483 22.4223 24.8193 22.478 24.762C22.5429 24.7046 22.5708 24.6278 22.5801 24.5417L22.7564 22.4917Z" fill="black"/>
<path d="M25.2158 22.5779L25.1694 23.1048C25.1508 23.2964 25.0766 23.4496 24.9373 23.5837C24.7981 23.7178 24.6312 23.7849 24.4547 23.7849H24.0742L23.9629 25.145H23.3876L23.638 22.1948H23.4711L23.4989 21.8978H24.6126C24.7981 21.8978 24.9466 21.9649 25.0581 22.099C25.1787 22.2331 25.225 22.3959 25.2158 22.5779ZM24.659 22.4917C24.6683 22.4055 24.6497 22.3384 24.5941 22.281C24.5382 22.2235 24.4733 22.1948 24.3898 22.1948H24.2136L24.102 23.4975H24.2785C24.362 23.4975 24.4269 23.4688 24.4918 23.4113C24.5568 23.3538 24.5941 23.2772 24.5941 23.2006L24.659 22.4917Z" fill="black"/>
<path d="M11.1369 26.6107C11.2111 26.6107 11.2761 26.6394 11.3318 26.697C11.3875 26.7544 11.4153 26.8213 11.4153 26.8981V27.5399C11.4153 27.6165 11.3875 27.6837 11.3318 27.741C11.2761 27.7984 11.2111 27.8271 11.1369 27.8271C11.0626 27.8271 10.9977 27.7984 10.942 27.741C10.8863 27.6837 10.8585 27.6165 10.8585 27.5399V26.8981C10.8585 26.8213 10.8863 26.7544 10.942 26.697C10.9977 26.6394 11.0626 26.6107 11.1369 26.6107ZM11.2297 26.8885C11.2297 26.8598 11.2204 26.8405 11.2019 26.8118C11.1833 26.7927 11.1555 26.7831 11.1276 26.7831C11.0998 26.7831 11.0812 26.7927 11.0534 26.8118C11.0348 26.8309 11.0255 26.8598 11.0255 26.8885V27.5399C11.0255 27.5686 11.0348 27.5878 11.0534 27.6165C11.0719 27.6356 11.0998 27.6452 11.1276 27.6452C11.1555 27.6452 11.174 27.6356 11.2019 27.6165C11.2204 27.5973 11.2297 27.5686 11.2297 27.5399V26.8885Z" fill="black"/>
<path d="M11.833 26.6202C11.9258 26.6202 12 26.6489 12.0464 26.7066C12.0835 26.7544 12.1021 26.8213 12.1021 26.9077V27.0801C12.1021 27.1662 12.0742 27.2334 12.0093 27.2908L12.1392 27.808H11.9536L11.8515 27.3675C11.8422 27.3675 11.8422 27.3675 11.833 27.3675H11.7309V27.808H11.5545V26.6298H11.833V26.6202ZM11.935 26.9077C11.935 26.8405 11.8979 26.8022 11.833 26.8022H11.7309V27.176H11.833C11.8608 27.176 11.8794 27.1662 11.9072 27.147C11.9258 27.1279 11.935 27.0992 11.935 27.0705V26.9077Z" fill="black"/>
<path d="M12.464 27.808H12.2877V26.6298H12.464V27.808Z" fill="black"/>
<path d="M12.8909 27.8176C12.8167 27.8176 12.7517 27.7889 12.696 27.7315C12.6404 27.6741 12.6125 27.6069 12.6125 27.5304V26.8885C12.6125 26.8118 12.6404 26.7448 12.696 26.6874C12.7517 26.6298 12.8167 26.6011 12.8909 26.6011C12.9652 26.6011 13.0302 26.6298 13.0858 26.6874C13.1415 26.7448 13.1694 26.8118 13.1694 26.8885V27.0227H12.993V26.8885C12.993 26.8598 12.9838 26.8407 12.9652 26.8118C12.9466 26.7927 12.9188 26.7831 12.8909 26.7831C12.8631 26.7831 12.8445 26.7927 12.8167 26.8118C12.7981 26.8309 12.7889 26.8598 12.7889 26.8885V27.5399C12.7889 27.5686 12.7981 27.5878 12.8167 27.6165C12.8353 27.6356 12.8631 27.6452 12.8909 27.6452C12.9188 27.6452 12.9373 27.6356 12.9652 27.6165C12.9838 27.5973 12.993 27.5686 12.993 27.5399V27.3099H12.9002V27.1279H13.1786V27.5399C13.1786 27.6165 13.1508 27.6837 13.0951 27.741C13.0302 27.7889 12.9652 27.8176 12.8909 27.8176Z" fill="black"/>
<path d="M13.4849 27.808H13.3086V26.6298H13.4849V27.808Z" fill="black"/>
<path d="M13.8283 26.6202L14.0603 27.4153V26.6202H14.2367V27.808H14.051L13.8097 27.0514V27.808H13.6427V26.6202H13.8283Z" fill="black"/>
<path d="M14.5986 27.5304L14.5522 27.7984H14.3759L14.5708 26.6202H14.8121L15.007 27.7984H14.8214L14.7842 27.5304H14.5986ZM14.6914 26.8981L14.6265 27.3675H14.7564L14.6914 26.8981Z" fill="black"/>
<path d="M15.6195 27.808H15.1462V26.6298H15.3225V27.6356H15.6195V27.808Z" fill="black"/>
<path d="M16.529 27.2525C16.5011 27.3771 16.464 27.4825 16.4176 27.5686C16.464 27.6069 16.5011 27.6356 16.5383 27.6356V27.7984C16.4733 27.7984 16.3991 27.7697 16.3341 27.7028C16.2691 27.7793 16.1949 27.8178 16.1114 27.8178C16.0186 27.8178 15.9536 27.7793 15.9072 27.7028C15.8794 27.655 15.8608 27.5973 15.8608 27.5399C15.8608 27.4825 15.8794 27.4153 15.9072 27.3484C15.9165 27.3388 15.9258 27.3099 15.9536 27.2621C15.9722 27.2334 15.9814 27.2142 16 27.1855L15.9629 27.0992C15.9443 27.061 15.935 27.0323 15.9258 27.0131C15.9165 26.9844 15.9072 26.9555 15.8979 26.9268C15.8886 26.8981 15.8886 26.8694 15.8886 26.8407C15.8886 26.7831 15.8979 26.7353 15.9258 26.697C15.9443 26.6489 15.9814 26.6107 16.0278 26.5915C16.065 26.5724 16.1021 26.5628 16.1392 26.5628C16.1856 26.5628 16.232 26.5724 16.2691 26.6011C16.3062 26.6298 16.3341 26.6587 16.3619 26.697C16.3805 26.7353 16.3898 26.7735 16.3898 26.8118C16.3898 26.879 16.3619 26.9459 16.3155 27.0131L16.2784 27.061C16.2413 27.1088 16.2134 27.1473 16.1856 27.1855C16.2227 27.2716 16.2691 27.3484 16.3155 27.4153C16.3434 27.3484 16.3619 27.2716 16.3805 27.2047L16.529 27.2525ZM16.1114 27.6454C16.1485 27.6454 16.1856 27.626 16.2227 27.5782C16.1763 27.5208 16.1299 27.444 16.0835 27.3484C16.0742 27.3675 16.065 27.3867 16.0464 27.4058C16.0278 27.4536 16.0186 27.4921 16.0186 27.5304C16.0186 27.5591 16.0278 27.5878 16.0371 27.6069C16.0557 27.6356 16.0742 27.6454 16.1114 27.6454ZM16.0464 26.8407C16.0464 26.879 16.065 26.9364 16.1021 27.0227C16.1114 27.0131 16.1206 27.0036 16.1206 26.994L16.1392 26.9651L16.1763 26.9172C16.2042 26.879 16.2134 26.8503 16.2134 26.8118C16.2134 26.7927 16.2134 26.7735 16.2042 26.7544C16.1856 26.7161 16.1671 26.697 16.1299 26.697C16.1021 26.697 16.0742 26.7161 16.0557 26.7448C16.0557 26.7735 16.0464 26.8118 16.0464 26.8407Z" fill="black"/>
<path d="M17.0487 26.6202C17.1322 26.6202 17.1972 26.6489 17.2529 26.7066C17.2993 26.7544 17.3179 26.8213 17.3179 26.9077V27.0801C17.3179 27.1566 17.29 27.2238 17.2343 27.2812C17.1786 27.3388 17.1137 27.3675 17.0394 27.3675H16.9373V27.808H16.761V26.6298H17.0487V26.6202ZM17.1508 26.9077C17.1508 26.879 17.1415 26.8503 17.123 26.8309C17.1044 26.8118 17.0766 26.8022 17.0487 26.8022H16.9466V27.176H17.0487C17.0766 27.176 17.0951 27.1662 17.123 27.147C17.1415 27.1279 17.1508 27.0992 17.1508 27.0705V26.9077Z" fill="black"/>
<path d="M17.7262 26.6202C17.819 26.6202 17.8933 26.6489 17.9397 26.7066C17.9768 26.7544 17.9954 26.8213 17.9954 26.9077V27.0801C17.9954 27.1662 17.9675 27.2334 17.9026 27.2908L18.0325 27.808H17.8469L17.7448 27.3675C17.7355 27.3675 17.7355 27.3675 17.7262 27.3675H17.6241V27.808H17.4478V26.6298H17.7262V26.6202ZM17.8283 26.9077C17.8283 26.8405 17.7912 26.8022 17.7262 26.8022H17.6241V27.176H17.7262C17.7541 27.176 17.7726 27.1662 17.8005 27.147C17.819 27.1279 17.8283 27.0992 17.8283 27.0705V26.9077Z" fill="black"/>
<path d="M18.181 26.6202H18.6729V26.8022H18.3573V27.1279H18.5893V27.3099H18.3573V27.6356H18.6729V27.8176H18.181V26.6202Z" fill="black"/>
<path d="M18.9606 27.808H18.7842V26.6202H19.0348L19.1926 27.4727L19.3504 26.6202H19.5917V27.808H19.4153V27.061L19.2668 27.808H19.1276L18.9606 27.0705V27.808Z" fill="black"/>
<path d="M19.9165 27.808H19.7402V26.6298H19.9165V27.808Z" fill="black"/>
<path d="M20.3434 27.8176C20.2691 27.8176 20.2042 27.7889 20.1485 27.7315C20.0928 27.6741 20.065 27.6069 20.065 27.5304V26.6202H20.232V27.5304C20.232 27.5591 20.2413 27.5782 20.2599 27.6069C20.2784 27.626 20.3063 27.6356 20.3341 27.6356C20.3619 27.6356 20.3805 27.626 20.4083 27.6069C20.4269 27.5878 20.4362 27.5591 20.4362 27.5304V26.6202H20.6125V27.5304C20.6125 27.6069 20.5847 27.6741 20.529 27.7315C20.4919 27.7889 20.4269 27.8176 20.3434 27.8176Z" fill="black"/>
<path d="M20.9466 27.808H20.7703V26.6202H21.0209L21.1787 27.4727L21.3364 26.6202H21.5777V27.808H21.4014V27.061L21.2529 27.808H21.1137L20.9466 27.0705V27.808Z" fill="black"/>
<path d="M16.232 0.881155H16.2227L16.2134 0.871583C16.2227 0.85244 16.232 0.833303 16.232 0.833303L16.2413 0.81416L16.2042 0.747163H16.1856C16.1763 0.747163 16.167 0.747163 16.167 0.747163C16.1485 0.747163 16.1299 0.756733 16.1206 0.775873C16.1114 0.785445 16.1114 0.795015 16.1114 0.804585C16.1021 0.814155 16.0928 0.8333 16.0928 0.84287C16.0928 0.85244 16.0928 0.871583 16.1114 0.890725L16.0928 0.919435V0.92901C16.0928 0.996005 16.1299 1.01515 16.1578 1.02472L16.167 1.03429C16.167 1.04386 16.167 1.063 16.167 1.07257V1.08214L16.1949 1.10128L16.2227 1.12999L16.2599 1.12042C16.2691 1.12042 16.2691 1.12042 16.2784 1.12042H16.297L16.3527 1.07257V1.04385L16.3898 1.01514L16.3805 0.986432C16.3619 0.929007 16.3248 0.881155 16.232 0.881155Z" fill="black"/>
</svg>
