<svg width="92" height="112" viewBox="0 0 92 112" fill="none" xmlns="http://www.w3.org/2000/svg">
<path d="M82.2536 37.9065L92 43.5038V89.1663L52.2465 112L12.4929 89.1663V78.8287L20.4512 83.4032V84.6168C31.0563 90.7099 41.6413 96.8018 52.2465 102.895C62.8516 96.8018 73.4378 90.7099 84.043 84.6168V48.0545L82.2536 47.0266V37.9065Z" fill="white"/>
<path d="M68.8036 30.1806V39.2945C63.2867 36.1218 57.7697 32.9491 52.2465 29.7752C41.6413 35.8696 31.0563 41.9601 20.4512 48.0545V67.9791L12.4929 63.4083V43.5038L52.2465 20.6713L68.8036 30.1806Z" fill="white"/>
<path d="M79.5071 22.8475V68.4912L39.746 91.3387C26.4914 83.722 13.2558 76.1078 0 68.4912V22.8475C13.2558 15.2309 26.4914 7.61668 39.746 0L79.5071 22.8475ZM39.7611 9.11391L7.95827 27.3794V63.9593L39.7611 82.2248L71.5501 63.9593V27.3794L39.7611 9.11391Z" fill="white"/>
</svg>
