<svg width="18" height="32" viewBox="0 0 18 32" fill="none" xmlns="http://www.w3.org/2000/svg">
<path fill-rule="evenodd" clip-rule="evenodd" d="M11.789 3.88274L3.80344 3.26897C2.57797 3.17479 2.44443 3.65591 2.39965 4.67938L2.3402 6.02935L0.963278 6.0011C0.363977 5.98854 0.0195424 6.13217 0.0162853 6.73887L0 9.57617C0.0048856 9.89718 0.308607 9.98901 0.504846 9.98273C5.98894 9.98744 11.473 10 16.9571 10C17.8976 9.98352 17.9473 9.84538 17.9921 8.9679L17.966 8.40986C17.9912 7.98838 18.0263 6.96727 17.9693 6.57876C17.8732 5.92183 17.3097 6.04427 16.7137 6.01209C16.7593 4.91013 16.9889 4.33953 15.6836 4.22259L13.4655 4.06248L14.2562 0.364179L12.6456 0L11.789 3.88274Z" fill="white"/>
<path d="M0 14C0 12.8954 0.895431 12 2 12H2.54954C3.6541 12 4.54954 12.8954 4.54954 14V19.8784H13.4846V14C13.4846 12.8954 14.3801 12 15.4846 12H16C17.1046 12 18 12.8954 18 14V30C18 31.1046 17.1046 32 16 32H15.4846C14.3801 32 13.4846 31.1046 13.4846 30V23.9503H4.54954V30C4.54954 31.1046 3.6541 32 2.54954 32H2C0.89543 32 0 31.1046 0 30V14Z" fill="white"/>
</svg>
