<svg width="60" height="60" viewBox="0 0 60 60" fill="none" xmlns="http://www.w3.org/2000/svg">
<g clip-path="url(#clip0_8531_2613)">
<path d="M1.54344 23.7962C1.54344 23.7962 1.54297 23.7947 1.54262 23.7931L1.46387 23.5865L1.54344 23.7962Z" fill="white"/>
<path d="M2.01953 19.1502L3.32945 18.2947C3.33016 18.2947 3.33086 18.2939 3.33168 18.2931L2.01953 19.1502Z" fill="white"/>
<path d="M56.2923 30.5234C56.2279 30.3551 56.1958 30.1775 56.1958 30C56.1958 29.8218 56.2279 29.6435 56.2926 29.4736L58.2695 24.2851L58.4553 23.7962C58.6592 23.2614 58.7579 22.7036 58.7579 22.1549C58.7586 20.6331 58.0011 19.1647 56.6679 18.2932L56.0117 17.8648L51.5773 14.9693C51.2763 14.772 51.0562 14.4682 50.9621 14.12L49.3745 8.25516C48.8266 6.23602 46.9979 4.84793 44.9239 4.84793C44.8455 4.84793 44.7675 4.84946 44.6891 4.85403L38.6441 5.15625V5.15555L38.5534 5.1579C38.214 5.1579 37.8869 5.04305 37.6237 4.83118L33.198 1.26633L32.8936 1.02153C32.0512 0.341255 31.0221 -0.000698069 29.9998 5.05573e-06C28.978 -0.00151838 27.9486 0.341255 27.1057 1.02153L27.1068 1.02071L22.8641 4.4379L22.3767 4.83047C22.1123 5.04317 21.7841 5.15801 21.4462 5.15801L21.3673 5.15625L15.3257 4.85485L15.3219 4.85403C15.2281 4.84864 15.1459 4.84793 15.0755 4.84793C13.0012 4.84793 11.1729 6.2359 10.625 8.25516L9.03723 14.12C8.94277 14.4696 8.72164 14.7742 8.41871 14.9723L7.98137 15.2578L3.32973 18.2947C1.99719 19.1671 1.24051 20.6345 1.24121 22.1556C1.24121 22.7034 1.33953 23.2589 1.54273 23.7931L3.7066 29.4735L3.70695 29.4742C3.77117 29.6426 3.80375 29.8216 3.80375 29.9999C3.80375 30.1782 3.77164 30.3565 3.70695 30.5249L1.54356 36.2038L1.54391 36.2031C1.34 36.7379 1.24121 37.295 1.24121 37.8436C1.24051 39.3655 1.99719 40.8346 3.3316 41.7068L7.10715 44.1722L8.41977 45.0292C8.72246 45.2265 8.94277 45.5296 9.03723 45.88L10.625 51.7441C11.1724 53.7633 13.0016 55.1514 15.0755 55.1521C15.1459 55.1514 15.2225 55.1506 15.3043 55.146L15.1306 55.1551L21.393 54.8422H21.39L21.4486 54.8414C21.7844 54.8414 22.1116 54.9563 22.3755 55.1689L27.1065 58.9801H27.1068C27.9488 59.6589 28.9776 60.0008 29.9998 60.0001C31.0217 60.0009 32.0509 59.6589 32.8933 58.9794L38.0309 54.8406L37.6246 55.1681C37.8887 54.9554 38.215 54.8414 38.5512 54.8414L38.6216 54.8429L44.7375 55.1482L44.7068 55.1468C44.7733 55.1498 44.8457 55.1514 44.9241 55.1521C46.9973 55.1514 48.8272 53.7641 49.3747 51.7441L50.9623 45.88C51.0568 45.5296 51.2769 45.2273 51.579 45.0299L56.6708 41.7053C58.0025 40.8329 58.7588 39.3655 58.7581 37.8443C58.7581 37.2956 58.6595 36.7378 58.4551 36.2023L56.2923 30.5234ZM53.3645 28.358C53.1629 28.8867 53.0619 29.4437 53.0619 30C53.0619 30.5571 53.1629 31.1141 53.3645 31.6429L55.5264 37.3194L55.5268 37.3202C55.593 37.4939 55.6239 37.6699 55.6239 37.8444C55.6231 38.3326 55.3822 38.804 54.9541 39.0832L49.867 42.4048H49.8673C48.9198 43.0229 48.2326 43.9688 47.9368 45.0614L46.3491 50.9255C46.1751 51.5728 45.5859 52.0181 44.9241 52.0173L44.8361 52.015L44.814 52.0143L38.7819 51.7136H38.7861C38.7118 51.709 38.6334 51.7075 38.5512 51.7066C37.5003 51.7066 36.4788 52.0663 35.6574 52.7282L35.2508 53.0564L30.9269 56.5393C30.6546 56.7589 30.3309 56.8661 30 56.8661C29.6695 56.8661 29.3454 56.7589 29.0727 56.5393L24.342 52.7282C23.521 52.0671 22.5 51.7075 21.4487 51.7075C21.3782 51.7075 21.296 51.7083 21.2019 51.7136V51.7144L15.1503 52.0166L15.1522 52.0159L15.0758 52.0174C14.4146 52.0181 13.8247 51.5728 13.6507 50.9256L12.063 45.0615C11.7672 43.9689 11.0802 43.0232 10.1325 42.4049L6.35762 39.9403L5.04582 39.0833C4.61809 38.8048 4.37633 38.3327 4.37551 37.8437C4.37586 37.6684 4.40656 37.4925 4.47231 37.3204L6.6357 31.6422L6.63535 31.643C6.83691 31.1135 6.93793 30.5572 6.93793 30.0001C6.93793 29.4431 6.83738 28.8861 6.63535 28.3574L4.55211 22.8902L4.47254 22.6821C4.40633 22.5076 4.37574 22.3309 4.37527 22.1557C4.37609 21.6668 4.6175 21.1962 5.04512 20.9177L10.1327 17.5963L10.1335 17.5955C11.0806 16.9758 11.7671 16.0308 12.0629 14.9388L13.6505 9.07395C13.8242 8.42743 14.415 7.98129 15.0757 7.98211L15.1346 7.98282L21.2178 8.28657L21.2244 8.28739C21.2982 8.29044 21.3725 8.29208 21.4463 8.29278C22.4973 8.29278 23.5191 7.93383 24.341 7.27278L29.0737 3.46079C29.3457 3.24118 29.669 3.13477 30 3.13407C30.3305 3.13407 30.6542 3.24118 30.9266 3.46079L30.6216 3.21516L35.6582 7.27196C36.4811 7.93454 37.5042 8.29196 38.5536 8.29196C38.6316 8.29196 38.7016 8.28961 38.7636 8.28809H38.7472L44.8497 7.98352H44.8538L44.9243 7.982C45.5853 7.98118 46.1756 8.42731 46.3493 9.07383L47.9369 14.9387C48.2327 16.0306 48.9189 16.9756 49.8663 17.5954L55.6106 21.3461L54.9541 20.9176C55.3822 21.1962 55.6232 21.6667 55.6239 22.1549C55.6239 22.3302 55.593 22.5062 55.5264 22.6813L53.0852 29.0895L53.3645 28.358Z" fill="white"/>
<path d="M22.9863 26.5193L21.371 26.8368C21.2861 26.8544 21.2394 26.9217 21.2563 27.0082L22.4579 33.1225L22.388 33.137L17.7558 27.6968C17.6793 27.6081 17.5859 27.5813 17.4857 27.6012L15.7705 27.9387C15.6855 27.9556 15.6389 28.0228 15.6573 28.1092L17.5109 37.5367C17.5273 37.6232 17.5958 37.6698 17.6808 37.653L19.296 37.3354C19.3809 37.3178 19.4276 37.2497 19.4112 37.1632L18.2109 31.0635L18.2824 31.0497L22.9246 36.4731C23.0011 36.5618 23.0814 36.5902 23.1962 36.5687L24.8965 36.2336C24.9813 36.2167 25.028 36.1486 25.0097 36.0621L23.1565 26.6339C23.1397 26.5477 23.0713 26.5026 22.9863 26.5193Z" fill="white"/>
<path d="M32.9137 32.7714L28.7265 33.5948C28.6699 33.6071 28.6351 33.5841 28.6251 33.5267L28.2284 31.512C28.2165 31.4554 28.2399 31.4218 28.2965 31.4096L31.7837 30.724C31.8686 30.7071 31.9153 30.6398 31.8989 30.5542L31.6005 29.0399C31.5836 28.9551 31.5152 28.9083 31.4302 28.9244L27.9434 29.6107C27.8867 29.6214 27.8515 29.5977 27.8402 29.5411L27.4614 27.6129C27.4499 27.5555 27.4733 27.5211 27.5299 27.5104L31.7171 26.687C31.8021 26.6702 31.8487 26.6021 31.8303 26.5164L31.5303 24.9885C31.5134 24.902 31.4453 24.8561 31.36 24.873L25.1313 26.098C25.0444 26.1149 24.9993 26.183 25.0162 26.2694L26.8697 35.6976C26.888 35.7834 26.9546 35.8292 27.0414 35.8124L33.2702 34.5873C33.3555 34.5705 33.4021 34.5024 33.3839 34.4167L33.0835 32.8879C33.0672 32.802 32.9987 32.7546 32.9137 32.7714Z" fill="white"/>
<path d="M44.2052 22.347L42.3765 22.7065C42.2766 22.7257 42.2281 22.7808 42.233 22.884L42.09 29.2463L42.0597 29.2517L39.148 23.4907C39.1013 23.4088 39.0328 23.3637 38.9478 23.3806L37.7044 23.6247C37.6061 23.6446 37.5595 23.7119 37.5477 23.8053L37.0893 30.2295L37.061 30.2356L34.4606 24.4112C34.4307 24.3271 34.3623 24.2828 34.2624 24.3026L32.4188 24.6638C32.319 24.6837 32.3021 24.7465 32.3339 24.8298L36.701 33.763C36.7476 33.8433 36.8158 33.8901 36.9011 33.8732L38.3296 33.5916C38.4295 33.5725 38.4761 33.5036 38.4876 33.4125L38.9995 27.0358L39.0278 27.0305L41.9014 32.7408C41.9465 32.8211 42.0151 32.8678 42.1149 32.8479L43.5434 32.5663C43.6433 32.5479 43.7034 32.4761 43.7019 32.3864L44.3469 22.4671C44.3434 22.3776 44.305 22.327 44.2052 22.347Z" fill="white"/>
</g>
<defs>
<clipPath id="clip0_8531_2613">
<rect width="60" height="60" fill="white"/>
</clipPath>
</defs>
</svg>
