<svg width="138" height="138" viewBox="0 0 138 138" fill="none" xmlns="http://www.w3.org/2000/svg">
<path d="M117.668 16.7842V15.7427C105.901 15.7427 94.2546 12.6182 84.4489 6.12881C80.0064 3.16451 74.6833 1.44201 68.9199 1.44201C63.1966 1.44201 57.8335 3.16451 53.3909 6.12881C43.5852 12.6182 31.9385 15.7427 20.1717 15.7427V16.7842C20.1717 29.4826 15.4489 41.5401 7.52434 51.4345C3.68211 56.2414 1.36076 62.3703 1.36076 69.02C1.36076 75.6696 3.64209 81.7584 7.52434 86.6055C15.4489 96.4998 20.1717 108.597 20.1717 121.256V122.297C31.9385 122.297 43.5852 125.422 53.3909 131.911C57.8335 134.875 63.1566 136.598 68.9199 136.598C74.6432 136.598 80.0064 134.875 84.4489 131.911C94.2546 125.422 105.901 122.297 117.668 122.297V121.256C117.668 108.557 122.391 96.4998 130.316 86.6055C134.158 81.7985 136.479 75.6696 136.479 69.02C136.479 62.3703 134.198 56.2815 130.316 51.4345C122.391 41.5401 117.668 29.4826 117.668 16.7842Z" fill="#FC811D"/>
<path d="M68.96 138C63.1166 138 57.4733 136.318 52.6305 133.073C43.3852 126.944 32.1787 123.699 20.2117 123.699C19.4113 123.699 18.7709 123.058 18.7709 122.257V121.216C18.7709 109.238 14.5284 97.5413 6.44374 87.4868C2.2413 82.1991 0 75.7898 0 69.02C0 62.2102 2.2413 55.8409 6.48376 50.5533C14.5284 40.4586 18.8109 28.8017 18.8109 16.8244V15.7428C18.8109 14.9416 19.4513 14.3007 20.2517 14.3007C32.2187 14.3007 43.4252 11.056 52.6705 4.92714C57.5133 1.72249 63.1566 0 69 0C74.8434 0 80.4867 1.68243 85.3295 4.92714C94.5748 11.056 105.781 14.3007 117.748 14.3007C118.549 14.3007 119.189 14.9416 119.189 15.7428V16.7843C119.189 28.7617 123.432 40.4586 131.516 50.5132C135.759 55.8009 138 62.2102 138 68.98C138 75.7898 135.759 82.1591 131.516 87.4467C123.472 97.5414 119.189 109.198 119.189 121.176V122.217C119.189 123.018 118.549 123.659 117.748 123.659C105.781 123.659 94.5748 126.904 85.3295 133.033C80.4466 136.318 74.8034 138 68.96 138ZM21.6926 120.855C33.6595 121.096 44.906 124.5 54.2314 130.709C58.594 133.594 63.6769 135.156 68.96 135.156C74.203 135.156 79.326 133.634 83.6885 130.709C93.0139 124.5 104.26 121.136 116.227 120.855C116.307 108.317 120.79 96.1794 129.195 85.6842C132.997 80.9173 135.038 75.1489 135.038 69.02C135.038 62.8911 133.037 57.1228 129.195 52.3559C120.79 41.8607 116.347 29.7231 116.227 17.1849C104.22 16.9445 93.0139 13.5396 83.6885 7.33062C79.326 4.44644 74.243 2.88418 68.96 2.88418C63.7169 2.88418 58.594 4.40638 54.2314 7.33062C44.906 13.5396 33.6595 16.9045 21.6926 17.1849C21.6125 29.7231 17.1299 41.8607 8.72506 52.3559C4.92286 57.1228 2.88167 62.8911 2.88167 69.02C2.88167 75.1489 4.88283 80.9173 8.72506 85.6842C17.1299 96.1794 21.6125 108.317 21.6926 120.855Z" fill="#FC811D"/>
<path d="M68.96 134.154C63.8771 134.154 58.9942 132.672 54.7918 129.868C45.7065 123.819 34.7402 120.374 23.0934 119.894C22.8533 119.894 22.6532 119.693 22.6131 119.413C22.2129 107.155 17.6903 95.2981 9.48552 85.0433C5.80339 80.4366 3.88227 74.9086 3.88227 68.98C3.88227 63.0914 5.84341 57.5234 9.48552 52.9167C17.6903 42.6618 22.2129 30.7646 22.6131 18.5469C22.6131 18.3065 22.8132 18.1062 23.0934 18.0662C34.7402 17.5855 45.6665 14.1405 54.7918 8.09174C58.9942 5.28767 63.9171 3.80552 68.96 3.80552C74.0429 3.80552 78.9258 5.28767 83.1282 8.09174C92.2135 14.1405 103.18 17.5855 114.827 18.0662C115.067 18.0662 115.267 18.2665 115.307 18.5469C115.707 30.8046 120.23 42.6618 128.434 52.9167C132.117 57.5234 134.038 63.0514 134.038 68.98C134.038 74.8685 132.077 80.4366 128.434 85.0433C120.23 95.2981 115.707 107.195 115.307 119.413C115.307 119.653 115.107 119.854 114.827 119.894C103.18 120.374 92.2535 123.819 83.1282 129.868C78.9258 132.672 74.0429 134.154 68.96 134.154ZM23.5737 118.972C35.2204 119.533 46.1868 123.018 55.3121 129.067C59.3544 131.751 64.0772 133.193 68.96 133.193C73.8428 133.193 78.5656 131.791 82.6079 129.067C91.7332 123.018 102.7 119.533 114.346 118.972C114.827 106.675 119.429 94.7373 127.674 84.4424C131.196 79.9959 133.077 74.6682 133.077 68.98C133.077 63.2917 131.196 57.964 127.674 53.5176C119.429 43.2226 114.827 31.2853 114.346 18.9875C102.7 18.4267 91.7332 14.9417 82.6079 8.8929C78.5656 6.20901 73.8428 4.7669 68.96 4.7669C64.0772 4.7669 59.3544 6.16895 55.3121 8.8929C46.1868 14.9417 35.2204 18.4267 23.5737 18.9875C23.0934 31.2853 18.4907 43.2226 10.246 53.5176C6.72392 57.9239 4.84283 63.2917 4.84283 68.98C4.84283 74.6682 6.72392 79.9959 10.246 84.4424C18.4907 94.7373 23.0934 106.675 23.5737 118.972Z" fill="black"/>
<path d="M68.96 80.0761C68.6798 80.0761 68.4797 79.8758 68.4797 79.5954V17.7057C68.4797 17.4253 68.6798 17.225 68.96 17.225C69.2402 17.225 69.4403 17.4253 69.4403 17.7057V79.5553C69.4403 79.8357 69.2402 80.0761 68.96 80.0761Z" fill="black"/>
<path d="M99.8579 49.1103H38.0621C37.7819 49.1103 37.5818 48.9102 37.5818 48.63C37.5818 48.3498 37.7819 48.1498 38.0621 48.1498H99.8579C100.138 48.1498 100.338 48.3498 100.338 48.63C100.338 48.9102 100.138 49.1103 99.8579 49.1103Z" fill="black"/>
<path d="M90.8127 70.9829C90.6926 70.9829 90.5725 70.9428 90.4525 70.8226L46.7871 27.1193C46.587 26.919 46.587 26.6386 46.7871 26.4383C46.9873 26.238 47.2674 26.238 47.4675 26.4383L91.1729 70.1817C91.373 70.382 91.373 70.6624 91.1729 70.8627C91.0528 70.9428 90.9327 70.9829 90.8127 70.9829Z" fill="black"/>
<path d="M47.1073 70.9828C46.9873 70.9828 46.8672 70.9428 46.7471 70.8226C46.547 70.6223 46.547 70.3419 46.7471 70.1416L90.4525 26.3982C90.6526 26.1979 90.9327 26.1979 91.1329 26.3982C91.333 26.5985 91.333 26.8789 91.1329 27.0792L47.4675 70.8626C47.3475 70.9427 47.2274 70.9828 47.1073 70.9828Z" fill="black"/>
<path d="M59.2344 73.7469C59.1944 73.7469 59.1143 73.7469 59.0743 73.7068C58.8341 73.6267 58.7141 73.3463 58.7941 73.0659L78.2454 23.8345C78.3254 23.5942 78.6056 23.474 78.8858 23.5541C79.1259 23.6342 79.246 23.9146 79.1659 24.195L59.6746 73.4264C59.5946 73.6267 59.4345 73.7469 59.2344 73.7469Z" fill="black"/>
<path d="M79.9264 21.391C79.8864 21.391 79.8063 21.391 79.7663 21.351C79.5261 21.2709 79.4061 20.9905 79.4861 20.7101L81.1671 16.4239C81.2471 16.1835 81.5273 16.0633 81.8075 16.1434C82.0476 16.2236 82.1677 16.504 82.0876 16.7844L80.4067 21.0706C80.2866 21.2709 80.1265 21.391 79.9264 21.391Z" fill="black"/>
<path d="M56.3127 81.1577C56.2727 81.1577 56.1926 81.1577 56.1526 81.1177C55.9124 81.0375 55.7924 80.7571 55.8724 80.4767L57.5534 76.1905C57.6334 75.9502 57.9136 75.83 58.1938 75.9101C58.4339 75.9902 58.554 76.2706 58.4739 76.551L56.793 80.8372C56.6729 81.0375 56.4728 81.1577 56.3127 81.1577Z" fill="black"/>
<path d="M93.5743 58.8854C93.5342 58.8854 93.4542 58.8854 93.4142 58.8454L44.2257 39.3772C43.9855 39.297 43.8654 39.0166 43.9455 38.7362C44.0255 38.4959 44.3057 38.3757 44.5859 38.4558L93.7744 57.924C94.0145 58.0041 94.1346 58.2846 94.0545 58.565C93.9345 58.7653 93.7744 58.8854 93.5743 58.8854Z" fill="black"/>
<path d="M100.979 61.8096C100.939 61.8096 100.858 61.8097 100.818 61.7696L96.536 60.0872C96.2958 60.007 96.1758 59.7266 96.2558 59.4462C96.3359 59.2059 96.616 59.0857 96.8962 59.1658L101.179 60.8482C101.419 60.9284 101.539 61.2088 101.459 61.4892C101.339 61.6895 101.179 61.8096 100.979 61.8096Z" fill="black"/>
<path d="M41.2639 38.1353C41.2239 38.1353 41.1438 38.1353 41.1038 38.0952L36.8213 36.4128C36.5812 36.3327 36.4611 36.0523 36.5412 35.7719C36.6212 35.5315 36.9014 35.4114 37.1815 35.4915L41.464 37.1739C41.7042 37.254 41.8242 37.5344 41.7442 37.8148C41.6241 38.0552 41.424 38.1353 41.2639 38.1353Z" fill="black"/>
<path d="M79.4861 73.4266C79.286 73.4266 79.1259 73.3064 79.0459 73.1461L57.9937 24.5557C57.8736 24.3154 57.9937 24.035 58.2338 23.9148C58.4739 23.7946 58.7541 23.9148 58.8742 24.1551L79.8864 72.7456C80.0064 72.9859 79.8864 73.2663 79.6462 73.3865C79.6062 73.4266 79.5261 73.4266 79.4861 73.4266Z" fill="black"/>
<path d="M57.1131 21.7513C56.913 21.7513 56.7529 21.6311 56.6729 21.4709L54.8318 17.2247C54.7117 16.9844 54.8318 16.704 55.072 16.5838C55.3121 16.4636 55.5923 16.5838 55.7123 16.8241L57.5534 21.0703C57.6735 21.3106 57.5534 21.5911 57.3133 21.7112C57.2332 21.7513 57.1932 21.7513 57.1131 21.7513Z" fill="black"/>
<path d="M82.6479 80.757C82.4478 80.757 82.2877 80.6369 82.2077 80.4766L80.3666 76.2305C80.2465 75.9901 80.3666 75.7097 80.6067 75.5896C80.8469 75.4694 81.127 75.5896 81.2471 75.8299L83.0882 80.076C83.2083 80.3164 83.0882 80.5968 82.848 80.717C82.768 80.757 82.728 80.757 82.6479 80.757Z" fill="black"/>
<path d="M44.706 59.6465C44.5059 59.6465 44.3458 59.5263 44.2657 59.3661C44.1457 59.1257 44.2657 58.8453 44.5059 58.7251L93.054 37.6946C93.2942 37.5745 93.5743 37.6947 93.6944 37.935C93.8145 38.1754 93.6944 38.4558 93.4543 38.5759L44.9061 59.6064C44.8261 59.6465 44.746 59.6465 44.706 59.6465Z" fill="black"/>
<path d="M96.3359 37.254C96.1358 37.254 95.9757 37.1338 95.8956 36.9736C95.7756 36.7332 95.8956 36.4528 96.1358 36.3327L100.378 34.49C100.618 34.3698 100.899 34.49 101.019 34.7304C101.139 34.9707 101.019 35.2511 100.778 35.3713L96.536 37.2139C96.456 37.254 96.3759 37.254 96.3359 37.254Z" fill="black"/>
<path d="M37.3817 62.8111C37.1816 62.8111 37.0215 62.6909 36.9415 62.5307C36.8214 62.2904 36.9415 62.01 37.1816 61.8898L41.4241 60.0471C41.6642 59.9269 41.9444 60.0471 42.0644 60.2875C42.1845 60.5278 42.0644 60.8082 41.8243 60.9284L37.5818 62.7711C37.5018 62.8111 37.4217 62.8111 37.3817 62.8111Z" fill="black"/>
<path d="M71.0011 26.6386C70.801 26.5985 70.6409 26.5985 70.4408 26.5985C69.1601 26.5985 67.9994 27.1593 67.2389 28.1207C66.5185 27.6 65.678 27.2795 64.7575 27.2795C64.2772 27.2795 63.7569 27.3596 63.3167 27.5599C55.5121 30.4842 50.3091 39.0165 50.3091 48.7907C50.3091 58.8453 55.9524 67.6981 64.0771 70.2618C64.4773 70.382 64.9176 70.4621 65.3178 70.4621C66.4785 70.4621 67.5591 69.9814 68.3196 69.1402C68.3596 69.1001 68.3596 69.1001 68.3996 69.0601C68.4396 69.1001 68.4396 69.1402 68.4797 69.1802C69.2801 70.1416 70.4408 70.7024 71.6815 70.7024C72.0017 70.7024 72.3219 70.6624 72.6421 70.5823C81.2871 68.4993 87.5307 59.326 87.5307 48.7506C87.5707 37.3741 80.4466 27.8403 71.0011 26.6386Z" fill="black"/>
<path d="M65.1577 67.2976C66.1583 66.2161 67.1189 65.0945 67.8393 63.7725C70.0006 59.927 71.2413 55.4004 70.3608 51.0341C69.6804 47.6692 67.279 45.5061 65.3979 42.7821C62.7964 38.9766 62.8764 34.41 64.5574 30.4042C58.2337 32.7676 53.6311 40.0982 53.6311 48.7508C53.6711 57.7238 58.5539 65.1746 65.1577 67.2976Z" fill="#FC811D"/>
<path d="M65.1577 68.7798C64.9976 68.7798 64.8776 68.7397 64.7175 68.6996C57.3532 66.3362 52.1902 58.1243 52.1902 48.7908C52.1902 39.6575 56.953 31.726 64.0371 29.0822C64.5974 28.8819 65.1978 29.0021 65.598 29.4427C65.9982 29.8433 66.1183 30.4842 65.8782 31.005C64.9176 33.3284 63.7169 37.8149 66.5585 42.021C67.0388 42.742 67.5591 43.423 68.0794 44.0639C69.6003 46.0268 71.1612 48.0297 71.7216 50.8337C72.8022 56.2816 70.841 61.329 69.04 64.5737C68.1595 66.0959 67.0388 67.4178 66.1583 68.3391C65.9582 68.5795 65.558 68.7798 65.1577 68.7798ZM62.196 33.3284C57.9135 36.4129 55.1119 42.3014 55.1119 48.7507C55.1119 56.4819 59.0342 63.2518 64.7575 65.5751C65.3979 64.8541 66.0783 64.0128 66.5986 63.0514C68.8399 59.0456 69.6804 54.8796 69 51.3144C68.5597 49.1914 67.279 47.549 65.9182 45.7864C65.3579 45.1054 64.7975 44.3443 64.2772 43.5832C62.196 40.659 61.5156 37.0538 62.196 33.3284Z" fill="#FC811D"/>
<path d="M70.5609 29.723C69.6404 32.1265 69.08 34.57 69.5603 37.1738C69.8005 38.4957 70.2407 39.6975 70.721 40.8992C72.402 44.865 75.0835 48.4702 75.3637 53.0368C75.6438 57.8838 73.9629 63.1314 71.8416 67.5779C78.8857 65.8554 84.2488 58.1242 84.2488 48.7907C84.2889 38.8563 78.2854 30.7245 70.5609 29.723Z" fill="#FC811D"/>
<path d="M71.8817 69.0199C71.4414 69.0199 71.0412 68.8196 70.761 68.4992C70.4008 68.0585 70.3208 67.4577 70.5609 66.977C72.2419 63.4118 74.203 58.1642 73.9229 53.1569C73.7628 50.1927 72.442 47.669 71.0812 44.945C70.5209 43.8234 69.9205 42.7018 69.4403 41.5C68.7999 40.0579 68.3997 38.736 68.1595 37.4542C67.6792 34.8905 68.0394 32.2466 69.2001 29.2022C69.4403 28.5613 70.0806 28.2008 70.721 28.2809C79.2459 29.4025 85.6897 38.2153 85.6897 48.7906C85.6897 58.6048 80.0064 67.1372 72.1618 69.0199C72.0818 69.0199 72.0017 69.0199 71.8817 69.0199ZM71.5215 31.3654C70.8411 33.4083 70.681 35.2109 71.0012 36.9334C71.2013 38.015 71.5615 39.0966 72.0818 40.3784C72.5621 41.46 73.0824 42.5015 73.6427 43.6231C75.0835 46.4672 76.6044 49.4315 76.8045 52.9967C77.0447 57.2028 75.924 61.489 74.5632 64.9741C79.4861 62.17 82.808 55.9209 82.808 48.7906C82.808 40.1381 78.0453 32.8876 71.5215 31.3654Z" fill="#FC811D"/>
<path d="M77.2848 52.1957C77.685 50.4732 77.9252 48.6706 77.8451 46.868C77.685 44.1841 76.5644 41.9409 75.5238 39.978C75.1236 39.2169 74.7633 38.4959 74.4432 37.7748C74.083 36.9737 73.8828 36.2927 73.7628 35.6117C73.7628 35.6117 73.7628 35.6117 73.7628 35.5717C73.5626 34.45 74.9635 33.6489 75.844 34.41C78.3254 36.4129 79.9664 40.0181 79.9664 44.0239C79.9664 47.1885 78.9658 50.1528 77.2848 52.1957Z" fill="black"/>
<path d="M106.021 88.968H31.8985C31.6183 88.968 31.4182 88.7679 31.4182 88.4877C31.4182 88.2075 31.6183 88.0074 31.8985 88.0074H105.981C106.262 88.0074 106.462 88.2075 106.462 88.4877C106.462 88.7679 106.262 88.968 106.021 88.968Z" fill="black"/>
<path d="M106.021 108.637H31.8985C31.6183 108.637 31.4182 108.436 31.4182 108.156C31.4182 107.876 31.6183 107.676 31.8985 107.676H105.981C106.262 107.676 106.462 107.876 106.462 108.156C106.502 108.396 106.262 108.637 106.021 108.637Z" fill="black"/>
<path d="M36.7013 91.5726L36.5813 92.8145H33.7396C33.4995 92.8145 33.3394 92.9346 33.1393 93.1349C32.9792 93.3352 32.8591 93.6156 32.8591 93.9361L32.0987 102.589C32.0586 103.069 32.1787 103.47 32.4188 103.71C32.659 103.911 32.9391 104.031 33.3394 103.991C33.6996 103.951 34.0198 103.83 34.34 103.55C34.6201 103.31 34.7802 102.949 34.8202 102.589H36.061C35.9809 103.31 35.7007 103.911 35.1404 104.431C34.5801 104.952 33.9397 105.192 33.2193 105.192C32.659 105.192 32.2588 105.192 32.0586 105.152C31.3782 105.032 30.7779 104.792 30.3376 104.351C29.8574 103.87 29.6172 103.27 29.6973 102.589L30.4177 94.2565C30.4977 93.4153 30.8579 92.7744 31.4583 92.2937C32.0586 91.853 32.739 91.6127 33.5395 91.6127H36.7013V91.5726Z" fill="black"/>
<path d="M44.826 94.4168L44.1456 102.268C44.0656 103.069 43.7054 103.75 43.105 104.271C42.4246 104.832 41.6242 105.112 40.5836 105.112H39.7831C38.7825 105.112 38.0221 104.832 37.4618 104.271C36.9014 103.75 36.6613 103.069 36.7414 102.268L37.4217 94.4168C37.5018 93.6156 37.862 92.9346 38.5024 92.3738C39.1427 91.813 39.9832 91.5726 40.9838 91.5726H41.7843C42.7849 91.5726 43.5453 91.8531 44.1056 92.3738C44.6259 92.9346 44.9061 93.6156 44.826 94.4168ZM42.3846 94.0563C42.4246 93.6957 42.3046 93.4153 42.1045 93.175C41.8643 92.9346 41.5842 92.8145 41.264 92.8145C40.9038 92.8145 40.6236 92.9346 40.3434 93.175C40.0633 93.4153 39.9032 93.7358 39.9032 94.0563L39.1427 102.629C39.1027 102.989 39.1828 103.27 39.4229 103.51C39.663 103.75 39.9432 103.87 40.3034 103.87C40.6636 103.87 40.9838 103.75 41.224 103.51C41.5041 103.27 41.6242 102.949 41.6642 102.589L42.3846 94.0563Z" fill="black"/>
<path d="M52.1502 91.5726L52.0702 92.8145H48.188L47.7477 97.7416H50.4293L50.3092 98.9834H47.6276L47.1073 105.152H44.6259L45.8266 91.5726H52.1502Z" fill="black"/>
<path d="M59.1544 91.5726L59.0743 92.8145H55.1921L54.7518 97.7416H57.4334L57.3133 98.9834H54.6318L54.1115 105.152H51.63L52.8307 91.5726H59.1544Z" fill="black"/>
<path d="M65.8782 91.5728L65.7582 92.8146H63.2767C62.9165 92.8146 62.5963 92.9347 62.3562 93.1751C62.076 93.4154 61.956 93.7359 61.9159 94.0564L61.5957 97.7016H64.6775L64.5975 98.9435H61.5157L61.1955 102.629C61.1555 102.989 61.2355 103.27 61.4757 103.51C61.7158 103.75 61.996 103.871 62.3562 103.871H64.8376L64.7176 105.072H61.3556C60.5551 105.072 59.9148 104.792 59.3945 104.231C58.8742 103.67 58.674 102.989 58.7541 102.228L59.4345 94.3768C59.5145 93.5757 59.8347 92.9347 60.4751 92.3739C61.0754 91.8131 61.7959 91.5327 62.5563 91.5327H65.8782V91.5728Z" fill="black"/>
<path d="M72.6021 91.5728L72.4821 92.8146H70.0406C69.6804 92.8146 69.3602 92.9347 69.1201 93.1751C68.8399 93.4154 68.7199 93.7359 68.6798 94.0564L68.3597 97.7016H71.4414L71.3614 98.9435H68.2796L67.9594 102.629C67.9194 102.989 67.9995 103.27 68.2396 103.51C68.4797 103.75 68.7599 103.871 69.1201 103.871H71.6015L71.4815 105.072H68.1195C67.3191 105.072 66.6787 104.792 66.1584 104.231C65.6381 103.67 65.438 102.989 65.518 102.228L66.1984 94.3768C66.2785 93.5757 66.5986 92.9347 67.239 92.3739C67.8394 91.8131 68.5598 91.5327 69.3202 91.5327H72.6021V91.5728Z" fill="black"/>
<path d="M82.3678 91.5726L82.2477 92.8145H81.087C80.4867 92.8145 80.0464 92.8946 79.8063 93.0548C79.326 93.3753 79.1259 93.7758 79.1259 94.2565C79.1259 94.7372 79.326 95.2179 79.6862 95.6986L81.9675 98.6629C82.5279 99.384 82.808 100.185 82.808 101.147C82.808 102.428 82.3277 103.43 81.3672 104.191C80.5267 104.832 79.4861 105.152 78.2054 105.152H76.3643L76.4844 103.911H78.0853C78.8057 103.911 79.366 103.75 79.7663 103.39C80.1665 103.069 80.3666 102.629 80.3666 102.108C80.3666 101.547 80.1665 100.986 79.7663 100.466L77.2448 96.9404C76.8846 96.4597 76.7245 95.8989 76.7245 95.258C76.7245 94.1364 77.1648 93.215 78.0853 92.494C78.8457 91.8931 79.7663 91.5726 80.8869 91.5726H82.3678Z" fill="black"/>
<path d="M92.0134 91.5726L91.0128 103.23C90.9728 103.67 91.1729 103.911 91.6131 103.911L91.4931 105.152H90.4525C89.8521 105.152 89.3718 104.992 89.0116 104.672C88.6514 104.351 88.4913 103.87 88.5714 103.23L88.9316 98.9834H86.6102L86.0899 105.152H83.6085L84.6891 92.8145H84.0087L84.1288 91.5726H87.2906L86.7703 97.7416H89.0917L89.612 91.5726H92.0134Z" fill="black"/>
<path d="M100.538 94.4168L99.8579 102.268C99.7779 103.069 99.4177 103.75 98.8173 104.271C98.1369 104.832 97.3365 105.112 96.2959 105.112H95.4954C94.4948 105.112 93.7344 104.832 93.1741 104.271C92.6137 103.75 92.3736 103.069 92.4536 102.268L93.134 94.4168C93.2141 93.6156 93.5743 92.9346 94.2147 92.3738C94.855 91.813 95.6955 91.5726 96.6961 91.5726H97.4966C98.4971 91.5726 99.2576 91.8531 99.8179 92.3738C100.378 92.9346 100.618 93.6156 100.538 94.4168ZM98.1369 94.0563C98.177 93.6957 98.0569 93.4153 97.8568 93.175C97.6166 92.9346 97.3365 92.8145 97.0163 92.8145C96.6561 92.8145 96.3759 92.9346 96.0958 93.175C95.8156 93.4153 95.6555 93.7358 95.6555 94.0563L94.855 102.669C94.815 103.029 94.8951 103.31 95.1352 103.55C95.3753 103.79 95.6555 103.911 96.0157 103.911C96.3759 103.911 96.6961 103.79 96.9362 103.55C97.2164 103.31 97.3365 102.989 97.3765 102.629L98.1369 94.0563Z" fill="black"/>
<path d="M108.743 94.4168L108.543 96.62C108.463 97.4211 108.143 98.0621 107.542 98.6229C106.942 99.1837 106.222 99.4641 105.461 99.4641H103.82L103.34 105.152H100.859L101.939 92.8145H101.219L101.339 91.5726H106.142C106.942 91.5726 107.582 91.8531 108.063 92.4139C108.583 92.9747 108.783 93.6557 108.743 94.4168ZM106.342 94.0563C106.382 93.6957 106.302 93.4153 106.062 93.175C105.821 92.9346 105.541 92.8145 105.181 92.8145H104.421L103.94 98.2623H104.701C105.061 98.2623 105.341 98.1422 105.621 97.9018C105.901 97.6615 106.062 97.341 106.062 97.0206L106.342 94.0563Z" fill="black"/>
<path d="M48.0278 111.281C48.348 111.281 48.6282 111.401 48.8683 111.642C49.1085 111.882 49.2285 112.162 49.2285 112.483V115.167C49.2285 115.487 49.1085 115.768 48.8683 116.008C48.6282 116.248 48.348 116.368 48.0278 116.368C47.7076 116.368 47.4275 116.248 47.1873 116.008C46.9472 115.768 46.8271 115.487 46.8271 115.167V112.483C46.8271 112.162 46.9472 111.882 47.1873 111.642C47.4275 111.401 47.7076 111.281 48.0278 111.281ZM48.4281 112.443C48.4281 112.323 48.388 112.242 48.308 112.122C48.228 112.042 48.1079 112.002 47.9878 112.002C47.8677 112.002 47.7877 112.042 47.6676 112.122C47.5876 112.202 47.5476 112.323 47.5476 112.443V115.167C47.5476 115.287 47.5876 115.367 47.6676 115.487C47.7477 115.567 47.8677 115.607 47.9878 115.607C48.1079 115.607 48.1879 115.567 48.308 115.487C48.388 115.407 48.4281 115.287 48.4281 115.167V112.443Z" fill="black"/>
<path d="M51.0296 111.321C51.4298 111.321 51.75 111.441 51.9501 111.682C52.1102 111.882 52.1903 112.162 52.1903 112.523V113.244C52.1903 113.604 52.0702 113.885 51.79 114.125L52.3503 116.288H51.5499L51.1096 114.446C51.0696 114.446 51.0696 114.446 51.0296 114.446H50.5893V116.288H49.8289V111.361H51.0296V111.321ZM51.4698 112.523C51.4698 112.242 51.3098 112.082 51.0296 112.082H50.5893V113.645H51.0296C51.1497 113.645 51.2297 113.604 51.3498 113.524C51.4298 113.444 51.4698 113.324 51.4698 113.204V112.523Z" fill="black"/>
<path d="M53.7512 116.288H52.9908V111.361H53.7512V116.288Z" fill="black"/>
<path d="M55.5922 116.328C55.272 116.328 54.9919 116.208 54.7517 115.968C54.5116 115.728 54.3915 115.447 54.3915 115.127V112.443C54.3915 112.122 54.5116 111.842 54.7517 111.602C54.9919 111.361 55.272 111.241 55.5922 111.241C55.9124 111.241 56.1926 111.361 56.4327 111.602C56.6728 111.842 56.7929 112.122 56.7929 112.443V113.004H56.0325V112.443C56.0325 112.323 55.9925 112.243 55.9124 112.122C55.8324 112.042 55.7123 112.002 55.5922 112.002C55.4721 112.002 55.3921 112.042 55.272 112.122C55.192 112.202 55.152 112.323 55.152 112.443V115.167C55.152 115.287 55.192 115.367 55.272 115.487C55.3521 115.567 55.4721 115.607 55.5922 115.607C55.7123 115.607 55.7923 115.567 55.9124 115.487C55.9925 115.407 56.0325 115.287 56.0325 115.167V114.205H55.6322V113.444H56.8329V115.167C56.8329 115.487 56.7129 115.768 56.4727 116.008C56.1926 116.208 55.9124 116.328 55.5922 116.328Z" fill="black"/>
<path d="M58.1537 116.288H57.3933V111.361H58.1537V116.288Z" fill="black"/>
<path d="M59.6346 111.321L60.6351 114.646V111.321H61.3956V116.288H60.5951L59.5545 113.124V116.288H58.8341V111.321H59.6346Z" fill="black"/>
<path d="M62.9565 115.127L62.7564 116.248H61.9959L62.8364 111.321H63.877L64.7175 116.248H63.9171L63.757 115.127H62.9565ZM63.3567 112.483L63.0766 114.446H63.6369L63.3567 112.483Z" fill="black"/>
<path d="M67.3591 116.288H65.3179V111.361H66.0783V115.567H67.3591V116.288Z" fill="black"/>
<path d="M71.2813 113.965C71.1612 114.486 71.0011 114.927 70.801 115.287C71.0011 115.447 71.1612 115.567 71.3213 115.567V116.248C71.0412 116.248 70.721 116.128 70.4408 115.848C70.1606 116.168 69.8405 116.329 69.4803 116.329C69.08 116.329 68.7999 116.168 68.5997 115.848C68.4797 115.648 68.3996 115.407 68.3996 115.167C68.3996 114.927 68.4797 114.646 68.5997 114.366C68.6398 114.326 68.6798 114.205 68.7999 114.005C68.8799 113.885 68.9199 113.805 69 113.685L68.8399 113.324C68.7598 113.164 68.7198 113.044 68.6798 112.964C68.6398 112.844 68.5997 112.723 68.5597 112.603C68.5197 112.483 68.5197 112.363 68.5197 112.243C68.5197 112.002 68.5597 111.802 68.6798 111.642C68.7598 111.441 68.9199 111.281 69.1201 111.201C69.2801 111.121 69.4402 111.081 69.6003 111.081C69.8004 111.081 70.0006 111.121 70.1606 111.241C70.3207 111.361 70.4408 111.482 70.5609 111.642C70.6409 111.802 70.681 111.962 70.681 112.122C70.681 112.403 70.5609 112.683 70.3608 112.964L70.2007 113.164C70.0406 113.364 69.9205 113.525 69.8004 113.685C69.9605 114.045 70.1606 114.366 70.3608 114.646C70.4808 114.366 70.5609 114.045 70.6409 113.765L71.2813 113.965ZM69.4803 115.608C69.6403 115.608 69.8004 115.527 69.9605 115.327C69.7604 115.087 69.5603 114.766 69.3602 114.366C69.3202 114.446 69.2801 114.526 69.2001 114.606C69.12 114.806 69.08 114.967 69.08 115.127C69.08 115.247 69.12 115.367 69.1601 115.447C69.2401 115.567 69.3202 115.608 69.4803 115.608ZM69.2001 112.243C69.2001 112.403 69.2801 112.643 69.4402 113.004C69.4803 112.964 69.5203 112.924 69.5203 112.884L69.6003 112.763L69.7604 112.563C69.8805 112.403 69.9205 112.283 69.9205 112.122C69.9205 112.042 69.9205 111.962 69.8805 111.882C69.8004 111.722 69.7204 111.642 69.5603 111.642C69.4402 111.642 69.3202 111.722 69.2401 111.842C69.2401 111.962 69.2001 112.122 69.2001 112.243Z" fill="black"/>
<path d="M73.5226 111.321C73.8828 111.321 74.163 111.441 74.4031 111.682C74.6032 111.882 74.6833 112.162 74.6833 112.523V113.244C74.6833 113.564 74.5632 113.845 74.3231 114.085C74.0829 114.326 73.8028 114.446 73.4826 114.446H73.0423V116.288H72.2819V111.361H73.5226V111.321ZM73.9629 112.523C73.9629 112.403 73.9228 112.283 73.8428 112.202C73.7628 112.122 73.6427 112.082 73.5226 112.082H73.0824V113.645H73.5226C73.6427 113.645 73.7227 113.604 73.8428 113.524C73.9228 113.444 73.9629 113.324 73.9629 113.204V112.523Z" fill="black"/>
<path d="M76.4443 111.321C76.8445 111.321 77.1647 111.441 77.3648 111.682C77.5249 111.882 77.605 112.162 77.605 112.523V113.244C77.605 113.604 77.4849 113.885 77.2048 114.125L77.7651 116.288H76.9646L76.5244 114.446C76.4843 114.446 76.4843 114.446 76.4443 114.446H76.0041V116.288H75.2436V111.361H76.4443V111.321ZM76.8846 112.523C76.8846 112.242 76.7245 112.082 76.4443 112.082H76.0041V113.645H76.4443C76.5644 113.645 76.6444 113.604 76.7645 113.524C76.8445 113.444 76.8846 113.324 76.8846 113.204V112.523Z" fill="black"/>
<path d="M78.4054 111.321H80.5267V112.082H79.1659V113.444H80.1665V114.205H79.1659V115.567H80.5267V116.328H78.4054V111.321Z" fill="black"/>
<path d="M81.7674 116.288H81.007V111.321H82.0876L82.768 114.886L83.4484 111.321H84.489V116.288H83.7286V113.164L83.0882 116.288H82.4878L81.7674 113.204V116.288Z" fill="black"/>
<path d="M85.8898 116.288H85.1294V111.361H85.8898V116.288Z" fill="black"/>
<path d="M87.7309 116.328C87.4107 116.328 87.1305 116.208 86.8904 115.968C86.6503 115.728 86.5302 115.447 86.5302 115.127V111.321H87.2506V115.127C87.2506 115.247 87.2906 115.327 87.3707 115.447C87.4507 115.527 87.5708 115.567 87.6909 115.567C87.8109 115.567 87.891 115.527 88.011 115.447C88.0911 115.367 88.1311 115.247 88.1311 115.127V111.321H88.8916V115.127C88.8916 115.447 88.7715 115.728 88.5314 115.968C88.3713 116.208 88.0911 116.328 87.7309 116.328Z" fill="black"/>
<path d="M90.3324 116.288H89.5719V111.321H90.6526L91.333 114.886L92.0133 111.321H93.054V116.288H92.2935V113.164L91.6531 116.288H91.0528L90.3324 113.204V116.288Z" fill="black"/>
<path d="M70.0006 3.68483H69.9606L69.9205 3.6448C69.9606 3.56475 70.0006 3.48472 70.0006 3.48472L70.0406 3.40467L69.8805 3.1245H69.8005C69.7604 3.1245 69.7204 3.1245 69.7204 3.1245C69.6404 3.1245 69.5603 3.16452 69.5203 3.24456C69.4803 3.28459 69.4803 3.32461 69.4803 3.36463C69.4403 3.40465 69.4002 3.48471 69.4002 3.52473C69.4002 3.56475 69.4002 3.6448 69.4803 3.72485L69.4002 3.84491V3.88495C69.4002 4.16511 69.5603 4.24516 69.6804 4.28518L69.7204 4.3252C69.7204 4.36522 69.7204 4.44528 69.7204 4.4853V4.52531L69.8405 4.60536L69.9606 4.72543L70.1207 4.68541C70.1607 4.68541 70.1607 4.68541 70.2007 4.68541H70.2807L70.5209 4.4853V4.36521L70.681 4.24514L70.641 4.12508C70.5609 3.88494 70.4008 3.68483 70.0006 3.68483Z" fill="black"/>
</svg>
