<svg width="214" height="214" viewBox="0 0 214 214" fill="none" xmlns="http://www.w3.org/2000/svg">
<rect width="214" height="214" rx="107" fill="black"/>
<circle cx="107" cy="107" r="104" fill="#B5D8C0"/>
<path d="M32.1487 149.5C30.1087 149.5 28.5154 148.967 27.3687 147.9C26.2221 146.833 25.6487 145.347 25.6487 143.44C25.6487 141.733 26.0421 140.2 26.8287 138.84C27.6287 137.467 28.7287 136.4 30.1287 135.64C31.5287 134.867 33.0954 134.48 34.8287 134.48C36.0954 134.48 37.1021 134.713 37.8487 135.18C38.5954 135.633 38.9687 136.247 38.9687 137.02C38.9687 137.647 38.7487 138.167 38.3087 138.58C37.8687 138.98 37.3087 139.18 36.6287 139.18C35.9754 139.18 35.3754 139.007 34.8287 138.66C34.2954 138.3 33.8687 137.787 33.5487 137.12C32.8821 137.373 32.2754 137.82 31.7287 138.46C31.1954 139.1 30.7754 139.86 30.4687 140.74C30.1621 141.62 30.0087 142.547 30.0087 143.52C30.0087 144.733 30.2154 145.68 30.6287 146.36C31.0554 147.04 31.6421 147.38 32.3887 147.38C32.9754 147.38 33.5087 147.22 33.9887 146.9C34.4821 146.567 34.8754 146.12 35.1687 145.56C35.4754 145 35.6421 144.38 35.6687 143.7C36.5354 143.7 37.1954 143.86 37.6487 144.18C38.1021 144.487 38.3287 144.953 38.3287 145.58C38.3287 146.3 38.0487 146.96 37.4887 147.56C36.9421 148.16 36.1954 148.633 35.2487 148.98C34.3021 149.327 33.2687 149.5 32.1487 149.5ZM55.8842 141.46C55.8842 143.26 55.9642 144.733 56.1242 145.88C56.2976 147.027 56.6442 147.96 57.1642 148.68C56.3909 149.28 55.5576 149.58 54.6642 149.58C53.8242 149.58 53.1709 149.28 52.7042 148.68C52.2509 148.067 51.9509 147.1 51.8042 145.78H47.4042C47.3109 146.14 47.2642 146.48 47.2642 146.8C47.2642 147.187 47.2976 147.527 47.3642 147.82C47.4309 148.113 47.5376 148.4 47.6842 148.68C47.3109 148.947 46.8709 149.16 46.3642 149.32C45.8576 149.493 45.3642 149.58 44.8842 149.58C44.2709 149.58 43.8042 149.413 43.4842 149.08C43.1776 148.747 43.0242 148.26 43.0242 147.62C43.0242 146.793 43.3109 145.66 43.8842 144.22C44.4709 142.767 45.5442 140.513 47.1042 137.46L46.4442 135.76C47.1909 135.307 47.8709 134.987 48.4842 134.8C49.0976 134.6 49.7642 134.5 50.4842 134.5C51.2442 134.5 51.7909 134.667 52.1242 135C52.7509 134.667 53.3109 134.5 53.8042 134.5C54.5376 134.5 55.0709 134.733 55.4042 135.2C55.7376 135.667 55.9042 136.413 55.9042 137.44L55.8842 141.46ZM51.6842 143.4V143.16C51.6842 140.68 51.7242 138.673 51.8042 137.14H51.5642C50.0976 139.46 48.9776 141.547 48.2042 143.4H51.6842ZM69.9163 139.14C69.3563 139.14 68.6763 139.04 67.8763 138.84L67.3763 141.56C67.7763 141.64 68.1763 141.68 68.5763 141.68L70.3763 141.22C70.4429 141.487 70.4763 141.807 70.4763 142.18C70.4763 142.753 70.2829 143.207 69.8963 143.54C69.5096 143.86 68.9763 144.02 68.2963 144.02C67.8963 144.02 67.4496 143.96 66.9563 143.84C66.7696 145.027 66.6763 145.787 66.6763 146.12C66.6763 146.733 66.7163 147.227 66.7963 147.6C66.8896 147.973 67.0496 148.313 67.2763 148.62C66.5963 149.22 65.7696 149.52 64.7963 149.52C63.9429 149.52 63.3229 149.307 62.9363 148.88C62.5496 148.453 62.3563 147.767 62.3563 146.82C62.3563 146.22 62.4429 145.32 62.6163 144.12C62.7896 142.907 63.1229 140.893 63.6163 138.08L62.5563 135.94C64.0629 134.967 65.4363 134.48 66.6763 134.48C67.4763 134.48 67.9629 134.847 68.1363 135.58C68.9896 135.527 69.8096 135.427 70.5963 135.28C71.3829 135.12 72.3763 134.887 73.5763 134.58C73.6829 135.073 73.7363 135.507 73.7363 135.88C73.7363 136.893 73.3963 137.693 72.7163 138.28C72.0363 138.853 71.1029 139.14 69.9163 139.14ZM85.0889 146.28C86.1156 146.133 87.1022 145.873 88.0489 145.5C88.1956 145.847 88.2689 146.273 88.2689 146.78C88.2689 147.647 88.0089 148.32 87.4889 148.8C86.9689 149.267 86.2289 149.5 85.2689 149.5C84.1356 149.5 83.0689 149.307 82.0689 148.92C81.4822 149.32 80.7822 149.52 79.9689 149.52C79.1156 149.52 78.4956 149.307 78.1089 148.88C77.7222 148.453 77.5289 147.767 77.5289 146.82C77.5289 146.22 77.6156 145.32 77.7889 144.12C77.9622 142.907 78.2956 140.893 78.7889 138.08L77.7289 135.94C79.2356 134.967 80.6089 134.48 81.8489 134.48C82.6356 134.48 83.1222 134.853 83.3089 135.6C84.2156 135.547 85.0822 135.44 85.9089 135.28C86.7356 135.12 87.7489 134.887 88.9489 134.58C89.0556 135.073 89.1089 135.507 89.1089 135.88C89.1089 136.893 88.7689 137.693 88.0889 138.28C87.4089 138.853 86.4756 139.14 85.2889 139.14C84.6756 139.14 83.9289 139.027 83.0489 138.8C82.9156 139.56 82.7489 140.48 82.5489 141.56C82.9489 141.64 83.3489 141.68 83.7489 141.68L85.5489 141.22C85.6156 141.487 85.6489 141.807 85.6489 142.18C85.6489 142.753 85.4556 143.207 85.0689 143.54C84.6822 143.86 84.1489 144.02 83.4689 144.02C83.0689 144.02 82.6222 143.96 82.1289 143.84C81.9422 145.027 81.8489 145.787 81.8489 146.12V146.28H85.0889ZM82.7289 133.24C82.4089 133.24 82.1489 133.107 81.9489 132.84C81.7489 132.573 81.6356 132.2 81.6089 131.72C82.0356 131.6 82.4422 131.42 82.8289 131.18C83.2289 130.927 83.7222 130.587 84.3089 130.16C84.8956 129.707 85.3889 129.367 85.7889 129.14C86.2022 128.9 86.6089 128.78 87.0089 128.78C87.4356 128.78 87.7622 128.927 87.9889 129.22C88.2156 129.513 88.3289 129.933 88.3289 130.48C88.3289 130.92 88.2622 131.407 88.1289 131.94C87.4222 131.94 86.7956 132.013 86.2489 132.16C85.7156 132.307 85.1356 132.507 84.5089 132.76C84.1089 132.92 83.7756 133.04 83.5089 133.12C83.2556 133.2 82.9956 133.24 82.7289 133.24ZM104.943 149.52C104.063 149.52 103.436 149.273 103.063 148.78C102.69 148.273 102.503 147.487 102.503 146.42C102.503 145.807 102.596 144.913 102.783 143.74C102.97 142.553 103.296 140.667 103.763 138.08L102.703 135.94C104.21 134.967 105.583 134.48 106.823 134.48C107.756 134.48 108.51 134.7 109.083 135.14C109.656 135.567 110.13 136.4 110.503 137.64C110.876 138.88 111.17 140.713 111.383 143.14H111.623C112.29 140.94 113.25 138.967 114.503 137.22C115.77 135.473 117.323 134.6 119.163 134.6C119.99 134.6 120.563 134.793 120.883 135.18C121.203 135.567 121.363 136.093 121.363 136.76C121.363 137.187 121.116 138.593 120.623 140.98C120.57 141.233 120.463 141.773 120.303 142.6C120.143 143.413 120.023 144.08 119.943 144.6C119.863 145.12 119.823 145.493 119.823 145.72C119.823 147.013 120.023 147.98 120.423 148.62C119.623 149.22 118.796 149.52 117.943 149.52C117.063 149.52 116.436 149.273 116.063 148.78C115.69 148.273 115.503 147.487 115.503 146.42C115.503 145.793 115.596 144.9 115.783 143.74C115.97 142.567 116.27 140.92 116.683 138.8H116.483C115.576 139.947 114.823 141.327 114.223 142.94C113.623 144.54 113.256 145.98 113.123 147.26C112.803 147.567 112.443 147.8 112.043 147.96C111.643 148.107 111.25 148.18 110.863 148.18C110.343 148.18 109.916 147.927 109.583 147.42C109.25 146.9 108.97 145.967 108.743 144.62C108.516 143.26 108.336 141.32 108.203 138.8H108.003C107.683 140.173 107.403 141.547 107.163 142.92C106.936 144.28 106.823 145.213 106.823 145.72C106.823 147.013 107.023 147.98 107.423 148.62C106.623 149.22 105.796 149.52 104.943 149.52ZM138.427 141.46C138.427 143.26 138.507 144.733 138.667 145.88C138.841 147.027 139.187 147.96 139.707 148.68C138.934 149.28 138.101 149.58 137.207 149.58C136.367 149.58 135.714 149.28 135.247 148.68C134.794 148.067 134.494 147.1 134.347 145.78H129.947C129.854 146.14 129.807 146.48 129.807 146.8C129.807 147.187 129.841 147.527 129.907 147.82C129.974 148.113 130.081 148.4 130.227 148.68C129.854 148.947 129.414 149.16 128.907 149.32C128.401 149.493 127.907 149.58 127.427 149.58C126.814 149.58 126.347 149.413 126.027 149.08C125.721 148.747 125.567 148.26 125.567 147.62C125.567 146.793 125.854 145.66 126.427 144.22C127.014 142.767 128.087 140.513 129.647 137.46L128.987 135.76C129.734 135.307 130.414 134.987 131.027 134.8C131.641 134.6 132.307 134.5 133.027 134.5C133.787 134.5 134.334 134.667 134.667 135C135.294 134.667 135.854 134.5 136.347 134.5C137.081 134.5 137.614 134.733 137.947 135.2C138.281 135.667 138.447 136.413 138.447 137.44L138.427 141.46ZM134.227 143.4V143.16C134.227 140.68 134.267 138.673 134.347 137.14H134.107C132.641 139.46 131.521 141.547 130.747 143.4H134.227ZM154.519 140.82C155.093 142.74 155.719 144.373 156.399 145.72C157.093 147.053 157.766 147.947 158.419 148.4C158.126 148.693 157.693 148.947 157.119 149.16C156.546 149.387 156.026 149.5 155.559 149.5C154.626 149.5 153.886 149.26 153.339 148.78C152.806 148.287 152.326 147.433 151.899 146.22L150.739 142.96L149.539 143.6C149.326 144.933 149.219 145.773 149.219 146.12C149.219 146.733 149.259 147.227 149.339 147.6C149.433 147.973 149.593 148.313 149.819 148.62C149.099 149.22 148.273 149.52 147.339 149.52C146.486 149.52 145.866 149.307 145.479 148.88C145.093 148.453 144.899 147.767 144.899 146.82C144.899 146.22 144.986 145.327 145.159 144.14C145.333 142.953 145.666 140.933 146.159 138.08L145.099 135.94C146.606 134.967 147.979 134.48 149.219 134.48C150.246 134.48 150.759 135.107 150.759 136.36C150.759 136.827 150.533 138.267 150.079 140.68L149.999 141.14L150.859 140.5C151.793 139.807 152.513 139.1 153.019 138.38C153.526 137.66 153.779 136.98 153.779 136.34C153.779 136.033 153.726 135.72 153.619 135.4C154.606 134.8 155.539 134.5 156.419 134.5C157.726 134.5 158.379 135.1 158.379 136.3C158.379 137.007 158.059 137.733 157.419 138.48C156.793 139.213 155.826 139.993 154.519 140.82ZM162.826 146.8C162.826 146.213 162.906 145.333 163.066 144.16C163.239 142.987 163.579 140.96 164.086 138.08L163.026 135.94C164.532 134.967 165.906 134.48 167.146 134.48C168.172 134.48 168.686 135.107 168.686 136.36C168.686 136.827 168.439 138.36 167.946 140.96C167.412 143.813 167.146 145.527 167.146 146.1C167.146 146.713 167.186 147.207 167.266 147.58C167.359 147.953 167.519 148.293 167.746 148.6C166.986 149.2 166.159 149.5 165.266 149.5C164.412 149.5 163.792 149.287 163.406 148.86C163.019 148.433 162.826 147.747 162.826 146.8ZM184.682 136.56C185.576 136.56 186.269 136.913 186.762 137.62C187.269 138.313 187.522 139.28 187.522 140.52C187.522 142.213 187.169 143.747 186.462 145.12C185.756 146.48 184.782 147.553 183.542 148.34C182.302 149.113 180.916 149.5 179.382 149.5C178.116 149.5 177.002 149.24 176.042 148.72C175.096 148.2 174.362 147.473 173.842 146.54C173.322 145.607 173.062 144.54 173.062 143.34C173.062 141.62 173.416 140.087 174.122 138.74C174.842 137.393 175.789 136.353 176.962 135.62C178.149 134.873 179.422 134.5 180.782 134.5C181.676 134.5 182.316 134.653 182.702 134.96C183.089 135.267 183.282 135.753 183.282 136.42C183.282 136.567 183.269 136.76 183.242 137C183.656 136.707 184.136 136.56 184.682 136.56ZM180.342 147.38C180.996 147.38 181.629 147.2 182.242 146.84C182.869 146.467 183.402 145.953 183.842 145.3C184.282 144.647 184.569 143.907 184.702 143.08C182.969 142.28 182.102 141.007 182.102 139.26C182.102 138.633 182.282 138.073 182.642 137.58C182.269 137.527 182.002 137.5 181.842 137.5C180.962 137.5 180.189 137.767 179.522 138.3C178.856 138.82 178.336 139.527 177.962 140.42C177.602 141.313 177.422 142.287 177.422 143.34C177.422 144.647 177.682 145.647 178.202 146.34C178.722 147.033 179.436 147.38 180.342 147.38Z" fill="black"/>
<path d="M44.7528 78.5H41.3928C40.9128 80.0733 40.3595 81.3533 39.7328 82.34C39.1195 83.34 38.3861 84.08 37.5328 84.56C36.6795 85.0533 35.6595 85.3 34.4728 85.3C33.2995 85.3 32.4128 85.08 31.8128 84.64C31.2128 84.2 30.9128 83.58 30.9128 82.78C32.4461 82.78 33.6395 82.6 34.4928 82.24C35.3595 81.88 35.9795 81.3933 36.3528 80.78C36.7261 80.18 36.9928 79.42 37.1528 78.5H35.7728C33.9461 78.5 32.6195 78.0733 31.7928 77.22C30.9795 76.3533 30.5728 74.9333 30.5728 72.96C30.5728 70.44 31.1595 68.6267 32.3328 67.52C33.5061 66.4133 35.0461 65.86 36.9528 65.86C38.2461 65.86 39.4528 66.0867 40.5728 66.54C41.7061 66.9933 42.5661 67.5 43.1528 68.06C43.1528 69.94 42.8395 72.3467 42.2128 75.28H45.2528L44.7528 78.5ZM34.5328 72.56C34.5328 73.5333 34.7328 74.2333 35.1328 74.66C35.5328 75.0733 36.1795 75.28 37.0728 75.28H37.8328L38.8528 69.22C38.4395 69.1267 38.0395 69.08 37.6528 69.08C36.7195 69.08 35.9661 69.3533 35.3928 69.9C34.8195 70.4333 34.5328 71.32 34.5328 72.56ZM56.0577 75.28L55.5577 78.5H53.4777C52.5577 78.5 51.9777 78.1533 51.7377 77.46H51.5777L50.8977 78.5H45.8977L46.3977 75.28H48.8377V75.24C48.8377 74.7333 48.8777 74.2733 48.9577 73.86C49.0377 73.4467 49.1577 72.98 49.3177 72.46C49.451 71.9533 49.551 71.54 49.6177 71.22C49.6843 70.8867 49.7177 70.54 49.7177 70.18C49.7177 69.8067 49.6777 69.46 49.5977 69.14C49.531 68.8067 49.431 68.5533 49.2977 68.38C49.8843 68.0733 50.4643 67.8333 51.0377 67.66C51.611 67.4867 52.1177 67.4 52.5577 67.4C53.0643 67.4 53.431 67.52 53.6577 67.76C53.8843 68 53.9977 68.3533 53.9977 68.82C53.9977 69.14 53.9577 69.4733 53.8777 69.82C53.7977 70.1533 53.671 70.6467 53.4977 71.3C53.3243 71.9 53.191 72.3933 53.0977 72.78C53.0177 73.1533 52.9777 73.5067 52.9777 73.84C52.9777 74.8 53.4243 75.28 54.3177 75.28H56.0577ZM47.1977 83.94C46.651 83.94 46.2177 83.8 45.8977 83.52C45.5777 83.24 45.4177 82.8667 45.4177 82.4C45.4177 81.72 45.6443 81.1667 46.0977 80.74C46.551 80.3133 47.131 80.1 47.8377 80.1C48.3843 80.1 48.8177 80.24 49.1377 80.52C49.471 80.8133 49.6377 81.1933 49.6377 81.66C49.6377 82.34 49.4043 82.8867 48.9377 83.3C48.4843 83.7267 47.9043 83.94 47.1977 83.94ZM51.7177 83.94C51.171 83.94 50.7377 83.8 50.4177 83.52C50.0977 83.24 49.9377 82.8667 49.9377 82.4C49.9377 81.72 50.1643 81.1667 50.6177 80.74C51.071 80.3133 51.651 80.1 52.3577 80.1C52.9043 80.1 53.3377 80.24 53.6577 80.52C53.991 80.8133 54.1577 81.1933 54.1577 81.66C54.1577 82.34 53.9243 82.8867 53.4577 83.3C53.0043 83.7267 52.4243 83.94 51.7177 83.94ZM73.3856 69.7C74.3056 69.7 75.0056 69.96 75.4856 70.48C75.979 71 76.2256 71.84 76.2256 73C76.2256 73.4533 76.1923 73.98 76.1256 74.58C76.059 75.18 75.9856 75.6667 75.9056 76.04L74.3056 78.5H56.7656L57.2656 75.28H72.0856C72.139 74.8267 72.1656 74.48 72.1656 74.24C72.1656 73.36 71.7523 72.92 70.9256 72.92H62.9856C61.7856 72.92 60.8323 72.6 60.1256 71.96C59.4323 71.3067 59.0856 70.1467 59.0856 68.48C59.0856 67.8 59.139 67.0067 59.2456 66.1C59.3656 65.1933 59.4923 64.4267 59.6256 63.8C59.9723 63.8933 60.5256 63.98 61.2856 64.06C62.0456 64.14 62.9123 64.18 63.8856 64.18C64.7256 64.18 66.1723 64.1267 68.2256 64.02C68.5723 64.0067 69.2123 63.98 70.1456 63.94C71.079 63.9 71.859 63.88 72.4856 63.88C73.3523 63.88 74.0056 63.9267 74.4456 64.02C74.8856 64.1133 75.1923 64.2867 75.3656 64.54C75.5523 64.7933 75.6456 65.1667 75.6456 65.66C75.6456 66.42 75.519 67.0533 75.2656 67.56C74.8123 67.4533 74.199 67.3667 73.4256 67.3C72.6523 67.22 71.8456 67.18 71.0056 67.18C70.2456 67.18 68.619 67.24 66.1256 67.36C64.419 67.44 63.4056 67.48 63.0856 67.48C62.979 68.0133 62.9256 68.4267 62.9256 68.72C62.9256 69.0933 63.0256 69.3533 63.2256 69.5C63.4256 69.6333 63.7123 69.7 64.0856 69.7H73.3856ZM88.6242 75.28L88.1042 78.5H87.3042C86.4242 78.5 85.5642 78.3733 84.7242 78.12C84.2042 78.3733 83.6575 78.5 83.0842 78.5C82.3375 78.5 81.7842 78.2667 81.4242 77.8C81.0642 77.3333 80.8842 76.6867 80.8842 75.86C80.8842 75.22 80.9709 74.3533 81.1442 73.26C81.3175 72.1667 81.5909 70.5333 81.9642 68.36L82.4642 65.56L81.3442 63.96C82.6909 62.9867 83.9709 62.5 85.1842 62.5C85.7575 62.5 86.1642 62.6133 86.4042 62.84C86.6575 63.0667 86.7842 63.4267 86.7842 63.92C86.7842 64.28 86.7309 64.74 86.6242 65.3C86.5175 65.86 86.3575 66.6067 86.1442 67.54C85.7709 69.2333 85.4842 70.66 85.2842 71.82C85.0975 72.98 85.0042 74.12 85.0042 75.24V75.28H88.6242ZM101.083 65.9C104.589 65.9 106.343 67.4467 106.343 70.54C106.343 71.9 106.029 73.1933 105.403 74.42C104.789 75.6467 103.949 76.6333 102.883 77.38C101.816 78.1267 100.663 78.5 99.4228 78.5H94.7028L94.4228 77.46H94.2628C94.1295 77.7267 93.8828 77.9667 93.5228 78.18C93.1761 78.3933 92.7628 78.5 92.2828 78.5H89.2828L89.7828 75.28H91.2228C91.7828 75.28 92.2561 75.14 92.6428 74.86C93.0295 74.58 93.2561 74.2733 93.3228 73.94L94.2028 68.42C94.5895 68.02 95.1161 67.6267 95.7828 67.24C96.4628 66.8533 97.2628 66.5333 98.1828 66.28C99.1028 66.0267 100.069 65.9 101.083 65.9ZM98.7028 75.28C99.0761 75.28 99.5161 75.1267 100.023 74.82C100.529 74.5133 100.963 74.0667 101.323 73.48C101.683 72.8933 101.863 72.2067 101.863 71.42C101.863 70.7533 101.696 70.2067 101.363 69.78C101.043 69.34 100.496 69.12 99.7228 69.12C99.1895 69.12 98.7628 69.2267 98.4428 69.44L97.6028 75.28H98.7028ZM132.626 75.28L132.126 78.5H121.726C120.939 78.5 120.199 78.3333 119.506 78C118.826 77.6533 118.259 77.0867 117.806 76.3C117.366 75.5133 117.146 74.4933 117.146 73.24C117.146 71.6533 117.506 70.3067 118.226 69.2C118.946 68.0933 119.879 67.2667 121.026 66.72C122.186 66.1733 123.413 65.9 124.706 65.9C125.693 65.9 126.573 66.0533 127.346 66.36C128.119 66.6667 128.746 67.0467 129.226 67.5C129.719 67.9533 130.066 68.42 130.266 68.9L129.166 75.28H132.626ZM125.226 75.28L126.306 69.24C125.826 69.16 125.413 69.12 125.066 69.12C124.399 69.12 123.766 69.2467 123.166 69.5C122.579 69.74 122.099 70.1267 121.726 70.66C121.353 71.1933 121.166 71.8733 121.166 72.7C121.166 73.6333 121.393 74.3 121.846 74.7C122.299 75.0867 122.839 75.28 123.466 75.28H125.226ZM143.393 65.9C144.446 65.9 145.393 66.04 146.233 66.32C147.073 66.5867 147.766 66.9267 148.313 67.34C148.873 67.74 149.273 68.1467 149.513 68.56C149.206 69.72 148.906 71.0067 148.613 72.42C148.32 73.82 148.126 75.0333 148.033 76.06L146.433 78.5H133.293L133.793 75.28H136.953C136.886 74.9333 136.82 74.5 136.753 73.98C136.7 73.46 136.673 72.9467 136.673 72.44C136.673 70.24 137.28 68.6 138.493 67.52C139.72 66.44 141.353 65.9 143.393 65.9ZM143.633 69.14C141.606 69.14 140.593 70.42 140.593 72.98C140.593 73.4733 140.62 73.9267 140.673 74.34C140.74 74.7533 140.813 75.0667 140.893 75.28H144.033C144.046 74.7067 144.42 72.82 145.153 69.62C145.073 69.4867 144.906 69.3733 144.653 69.28C144.4 69.1867 144.06 69.14 143.633 69.14ZM140.993 75.44H140.973H140.993ZM143.933 64.1C143.386 64.1 142.953 63.96 142.633 63.68C142.313 63.4 142.153 63.0267 142.153 62.56C142.153 61.88 142.38 61.3267 142.833 60.9C143.286 60.4733 143.866 60.26 144.573 60.26C145.12 60.26 145.553 60.4067 145.873 60.7C146.206 60.98 146.373 61.3533 146.373 61.82C146.373 62.5 146.14 63.0533 145.673 63.48C145.22 63.8933 144.64 64.1 143.933 64.1ZM161.03 75.28L160.51 78.5H159.71C158.83 78.5 157.97 78.3733 157.13 78.12C156.61 78.3733 156.064 78.5 155.49 78.5C154.744 78.5 154.19 78.2667 153.83 77.8C153.47 77.3333 153.29 76.6867 153.29 75.86C153.29 75.22 153.377 74.3533 153.55 73.26C153.724 72.1667 153.997 70.5333 154.37 68.36L154.87 65.56L153.75 63.96C155.097 62.9867 156.377 62.5 157.59 62.5C158.164 62.5 158.57 62.6133 158.81 62.84C159.064 63.0667 159.19 63.4267 159.19 63.92C159.19 64.28 159.137 64.74 159.03 65.3C158.924 65.86 158.764 66.6067 158.55 67.54C158.177 69.2333 157.89 70.66 157.69 71.82C157.504 72.98 157.41 74.12 157.41 75.24V75.28H161.03ZM178.329 69.7C179.249 69.7 179.949 69.96 180.429 70.48C180.922 71 181.169 71.84 181.169 73C181.169 73.4533 181.135 73.98 181.069 74.58C181.002 75.18 180.929 75.6667 180.849 76.04L179.249 78.5H161.709L162.209 75.28H177.029C177.082 74.8267 177.109 74.48 177.109 74.24C177.109 73.36 176.695 72.92 175.869 72.92H167.929C166.729 72.92 165.775 72.6 165.069 71.96C164.375 71.3067 164.029 70.1467 164.029 68.48C164.029 67.8 164.082 67.0067 164.189 66.1C164.309 65.1933 164.435 64.4267 164.569 63.8C164.915 63.8933 165.469 63.98 166.229 64.06C166.989 64.14 167.855 64.18 168.829 64.18C169.669 64.18 171.115 64.1267 173.169 64.02C173.515 64.0067 174.155 63.98 175.089 63.94C176.022 63.9 176.802 63.88 177.429 63.88C178.295 63.88 178.949 63.9267 179.389 64.02C179.829 64.1133 180.135 64.2867 180.309 64.54C180.495 64.7933 180.589 65.1667 180.589 65.66C180.589 66.42 180.462 67.0533 180.209 67.56C179.755 67.4533 179.142 67.3667 178.369 67.3C177.595 67.22 176.789 67.18 175.949 67.18C175.189 67.18 173.562 67.24 171.069 67.36C169.362 67.44 168.349 67.48 168.029 67.48C167.922 68.0133 167.869 68.4267 167.869 68.72C167.869 69.0933 167.969 69.3533 168.169 69.5C168.369 69.6333 168.655 69.7 169.029 69.7H178.329Z" fill="black"/>
<path d="M8 105C8 102.791 9.79086 101 12 101H74V113H12C9.79086 113 8 111.209 8 109V105Z" fill="#0055A4"/>
<rect x="74" y="101" width="66" height="12" fill="white"/>
<path d="M140 101H202C204.209 101 206 102.791 206 105V109C206 111.209 204.209 113 202 113H140V101Z" fill="#EF4135"/>
</svg>
