<svg width="154" height="124" viewBox="0 0 154 124" fill="none" xmlns="http://www.w3.org/2000/svg">
<path fill-rule="evenodd" clip-rule="evenodd" d="M96.2986 117.587C81.6175 122.102 66.8321 121.081 51.9424 114.527C64.4317 126.038 79.2171 127.059 96.2986 117.587Z" fill="#904D70"/>
<path fill-rule="evenodd" clip-rule="evenodd" d="M44.411 103.257C63.425 120.232 85.6494 120.789 111.084 104.926C86.7485 115.74 64.5242 115.184 44.411 103.257Z" fill="#904D70"/>
<path fill-rule="evenodd" clip-rule="evenodd" d="M36.7387 91.1535C63.4337 113.458 90.633 114.154 118.337 93.2408C91.1052 107.841 63.9058 107.146 36.7387 91.1535Z" fill="#904D70"/>
<path fill-rule="evenodd" clip-rule="evenodd" d="M33.1122 86.2847C91.1148 109.858 118.227 95.8163 119.393 82.8597C119.534 81.2925 119.295 79.7414 118.686 78.2751C115.858 71.4627 105.034 66.4684 87.0916 70.1476C153.89 81.3955 81.6519 111.346 28.7878 79.7468C28.7878 79.7468 27.1144 93.1025 38.1325 106.875C32.9713 99.0847 33.1112 86.2857 33.1112 86.2857" fill="#904D70"/>
<path fill-rule="evenodd" clip-rule="evenodd" d="M124.381 113.734C119.185 117.674 112.143 118.168 106.445 114.994C106.063 118.971 107.644 121.336 111.188 122.089C119.271 124.256 127.88 121.54 133.244 115.13C138.607 108.72 139.747 99.7862 136.165 92.2411C132.582 84.6961 124.929 79.9152 116.56 79.9935C117.169 81.4598 117.408 83.012 117.267 84.5781C123.696 85.6958 128.85 90.5077 130.394 96.8321C131.937 103.157 129.576 109.792 124.382 113.732" fill="#904D70"/>
<path fill-rule="evenodd" clip-rule="evenodd" d="M78.788 81.698C97.4579 52.5013 60.3729 46.0911 65.8814 29.8553C67.4914 25.1088 72.0362 21.9788 77.0565 22.159C83.9609 22.4068 91.3504 31.2229 86.7754 36.2816C85.3826 37.8219 83.2049 38.3915 81.2335 37.7297C82.7585 36.9595 83.606 35.2905 83.3253 33.6085C83.0446 31.9266 81.7003 30.6212 80.0075 30.3863C78.3148 30.1514 76.6639 31.0406 75.9337 32.5809C73.3429 35.6745 73.5623 40.2322 76.437 43.064C79.3128 45.8958 83.8846 46.0557 86.9528 43.433C92.272 37.5484 91.9591 28.5177 86.2462 23.0128C80.5323 17.5079 71.4738 17.5079 65.7599 23.0128C51.7961 36.4672 72.4686 47.2796 78.4438 59.0145C73.3698 50.8247 59.149 48.3029 55.5 58.7892C54.0955 62.8267 55.2978 67.3104 58.5371 70.1079C61.7764 72.9054 66.3965 73.4535 70.2026 71.4895C72.1169 70.6979 73.3999 68.8722 73.4903 66.8063C73.5806 64.7403 72.4632 62.8095 70.6242 61.8549C68.7862 60.9002 66.5589 61.0943 64.9146 62.3526C64.6392 63.7406 65.3039 65.1458 66.5525 65.8173C67.8022 66.4877 69.3433 66.2678 70.3542 65.2745C68.9626 67.7738 66.09 69.0642 63.2917 68.4474C60.4934 67.8296 58.4339 65.4515 58.2284 62.6004C57.4262 51.4351 75.0497 56.188 79.3569 67.9304C81.0367 72.5117 80.7539 77.4535 78.788 81.6958" fill="#904D70"/>
<path fill-rule="evenodd" clip-rule="evenodd" d="M0 76.8002C0 74.2644 2.06057 72.2092 4.60295 72.2092C7.14533 72.2092 9.20591 74.2644 9.20591 76.8002C9.20591 79.336 7.14533 81.3912 4.60295 81.3912C2.06057 81.3912 0 79.336 0 76.8002Z" fill="#904D70"/>
<path fill-rule="evenodd" clip-rule="evenodd" d="M2.62303 56.9228C3.28121 54.4739 5.80529 53.0204 8.26056 53.6769C10.7158 54.3334 12.1731 56.8509 11.5149 59.2998C10.8567 61.7487 8.33263 63.2021 5.87736 62.5456C3.42209 61.8892 1.96485 59.3717 2.62303 56.9228Z" fill="#904D70"/>
<path fill-rule="evenodd" clip-rule="evenodd" d="M10.3158 38.4001C11.5869 36.2044 14.4014 35.4524 16.604 36.7203C18.8054 37.9882 19.5593 40.7954 18.2881 42.9911C17.0169 45.1868 14.2025 45.9398 12.001 44.6719C9.79954 43.4041 9.04457 40.5969 10.3158 38.4001Z" fill="#904D70"/>
<path fill-rule="evenodd" clip-rule="evenodd" d="M22.5523 22.4947C24.3494 20.7023 27.2639 20.7023 29.0621 22.4947C30.8592 24.2882 30.8592 27.194 29.0621 28.9875C27.265 30.781 24.3505 30.781 22.5523 28.9875C20.7553 27.1951 20.7553 24.2882 22.5523 22.4947Z" fill="#904D70"/>
<path fill-rule="evenodd" clip-rule="evenodd" d="M38.4992 10.29C40.7006 9.02214 43.5162 9.77406 44.7863 11.9698C46.0575 14.1655 45.3036 16.9738 43.1021 18.2416C40.9007 19.5095 38.0851 18.7576 36.8139 16.5608C35.5428 14.365 36.2967 11.5568 38.4992 10.29Z" fill="#904D70"/>
<path fill-rule="evenodd" clip-rule="evenodd" d="M57.0702 2.61729C59.5254 1.96082 62.0495 3.41427 62.7077 5.86315C63.3659 8.31203 61.9087 10.8296 59.4534 11.486C56.9981 12.1425 54.474 10.689 53.8159 8.24016C53.1577 5.79128 54.6149 3.27376 57.0702 2.61729Z" fill="#904D70"/>
<path fill-rule="evenodd" clip-rule="evenodd" d="M76.9995 0C79.5419 0 81.6025 2.05522 81.6025 4.59098C81.6025 7.12675 79.5419 9.18195 76.9995 9.18195C74.4571 9.18195 72.3965 7.12675 72.3965 4.59098C72.3965 2.05522 74.4571 0 76.9995 0Z" fill="#904D70"/>
<path fill-rule="evenodd" clip-rule="evenodd" d="M96.9287 2.61729C99.384 3.27376 100.841 5.79128 100.183 8.24016C99.5249 10.689 97.0008 12.1425 94.5455 11.486C92.0902 10.8296 90.633 8.31311 91.2912 5.86315C91.9494 3.41427 94.4735 1.96082 96.9287 2.61729Z" fill="#904D70"/>
<path fill-rule="evenodd" clip-rule="evenodd" d="M115.5 10.29C117.701 11.5579 118.455 14.365 117.185 16.5608C115.914 18.7565 113.099 19.5095 110.897 18.2416C108.695 16.9738 107.94 14.1666 109.212 11.9698C110.483 9.77406 113.297 9.02214 115.5 10.29Z" fill="#904D70"/>
<path fill-rule="evenodd" clip-rule="evenodd" d="M131.447 22.4947C133.244 24.2882 133.244 27.194 131.447 28.9875C129.65 30.781 126.735 30.781 124.937 28.9875C123.14 27.1951 123.14 24.2882 124.937 22.4947C126.734 20.7023 129.648 20.7023 131.447 22.4947Z" fill="#904D70"/>
<path fill-rule="evenodd" clip-rule="evenodd" d="M143.683 38.4001C144.954 40.5958 144.2 43.4041 141.998 44.6719C139.796 45.9398 136.981 45.1868 135.71 42.9911C134.438 40.7954 135.193 37.9871 137.395 36.7203C139.596 35.4524 142.412 36.2044 143.683 38.4001Z" fill="#904D70"/>
<path fill-rule="evenodd" clip-rule="evenodd" d="M151.376 56.9228C152.034 59.3717 150.577 61.8892 148.122 62.5456C145.666 63.2021 143.142 61.7487 142.484 59.2998C141.826 56.8509 143.283 54.3334 145.738 53.6769C148.194 53.0204 150.718 54.4739 151.376 56.9228Z" fill="#904D70"/>
<path fill-rule="evenodd" clip-rule="evenodd" d="M154 76.8002C154 79.336 151.939 81.3912 149.397 81.3912C146.855 81.3912 144.794 79.336 144.794 76.8002C144.794 74.2644 146.855 72.2092 149.397 72.2092C151.939 72.2092 154 74.2644 154 76.8002Z" fill="#904D70"/>
</svg>
